<svg width="396" height="489" viewBox="0 0 396 489" fill="none" xmlns="http://www.w3.org/2000/svg">
<path d="M322.914 400.198C322.964 400.335 322.964 400.335 322.914 400.198V400.198ZM328.596 397.799C325.958 392.066 310.856 392.002 304.532 391.207C291.835 389.481 278.966 389.22 266.269 387.493C257.51 386.346 238.333 383.882 239.229 372.798C239.808 367.13 243.604 361.528 246.82 356.761C250.511 351.353 254.357 345.888 258.204 340.422C271.272 321.906 287.359 297.605 273.035 277.928C266.13 268.306 253.518 263.431 241.723 259.815C228.894 255.798 215.375 253.283 201.851 251.236C214.18 253.41 226.247 255.835 238.042 259.452C249.424 262.909 260.745 267.167 268.703 275.311C286.879 293.885 269.476 319.916 255.995 338.272C248.992 347.703 239.857 357.605 236.212 368.451C231.716 381.325 243.956 387.116 255.292 389.967C267.197 392.919 279.804 393.432 292.037 394.862C298.724 395.679 305.461 396.633 312.092 397.782C314.371 398.192 321.658 401.127 323.332 399.888C321.638 403.004 314.665 404.787 311.332 405.855C304.716 408.129 298.055 409.796 291.445 411.601C281.92 414.164 263.949 420.298 270.002 431.946C275.036 441.787 286.806 447.751 296.554 453.523C298.153 454.494 310.538 461.167 309.958 462.004C308.431 464.123 306.747 466.3 305.219 468.42C313.938 468.491 322.45 468.482 331.168 468.553C327.607 461.756 323.839 454.879 320.278 448.082C318.857 450.007 317.435 451.932 316.013 453.857C314.854 455.529 313.729 453.916 312.181 453.082C309.084 451.414 305.988 449.746 302.997 447.883C297.889 445.083 292.886 442.089 288.04 439.037C283.607 436.145 277.626 432.419 276.279 427.303C273.847 416.818 338.411 411.963 328.596 397.799Z" fill="#231F20"/>
<path d="M338.153 95.5026C338.236 95.3868 338.236 95.3868 338.153 95.5026V95.5026ZM342.863 99.2336C338.895 103.929 324.7 100.059 318.557 99.1593C306.188 97.4758 294.039 94.3718 281.67 92.6883C273.149 91.4856 254.505 88.8079 252.462 99.4462C251.53 104.918 253.636 111.165 255.415 116.477C257.472 122.514 259.661 128.646 261.85 134.778C269.298 155.561 278.076 182.561 259.509 197.305C250.523 204.541 237.415 205.835 225.401 206.161C212.312 206.593 198.966 205.436 185.737 203.838C197.877 205.006 209.837 205.869 221.851 205.543C233.435 205.26 245.171 204.209 254.761 198.635C276.658 185.929 267.095 156.962 259.216 136.222C255.097 125.546 249.097 113.873 248.499 102.743C247.628 89.487 260.625 87.2351 272.009 87.5097C283.954 87.8363 295.922 90.6353 307.778 92.477C314.268 93.45 320.841 94.3073 327.365 94.9541C329.611 95.1626 337.216 94.304 338.465 95.9022C337.686 92.5361 331.603 89.0483 328.752 87.178C323.134 83.3215 317.314 80.0229 311.578 76.6084C303.304 71.7231 288.029 61.2887 296.743 51.9284C304.03 44 316.631 41.4644 327.284 38.5833C329.038 38.0874 342.402 35.0461 342.075 34.11C341.193 31.7225 340.178 29.2405 339.296 26.853C347.499 29.0555 355.487 31.2792 363.69 33.4817C358.579 38.9358 353.252 44.4111 348.14 49.8652C347.306 47.6881 346.473 45.511 345.639 43.3339C344.986 41.4617 343.51 42.6834 341.84 43.0635C338.499 43.8238 335.158 44.5841 331.866 45.5548C326.341 46.8535 320.866 48.3626 315.522 49.9662C310.608 51.5274 304.024 53.4688 301.428 57.9213C296.416 67.1313 355.763 88.4915 342.863 99.2336Z" fill="#231F20"/>
<path d="M4.33 194.75L5.17 195.17L5.58 196.87C10.9171 205.475 17.5636 213.194 25.28 219.75L26.72 221.24C27.41 221.9 27.97 222.46 28.39 222.91L29.39 223.91C28.29 226.05 25.87 227.15 22.12 227.23C23.0753 228.034 24.1108 228.738 25.21 229.33C25.63 229.54 26.06 229.73 26.48 229.91L29.39 231.91L30.83 232.91L32.91 234.73L33.31 235.91L32.12 238L29 240.31L28.82 240.61L25.7 242.48L25.48 242.73L24.48 243.09L24 243.4H23.6L20.91 244.93C19.7404 244.645 18.5196 244.645 17.35 244.93C16.982 244.742 16.6853 244.439 16.5048 244.068C16.3243 243.696 16.27 243.275 16.35 242.87C15.7246 242.953 15.0886 242.877 14.5 242.65C14.0677 241.224 13.8553 239.74 13.87 238.25L13.69 236.85C13.7132 236.372 13.6348 235.895 13.46 235.45L13.24 233.28L11.79 227.91C10.7171 227.763 9.67229 227.456 8.69 227C8.9101 226.474 9.24538 226.004 9.67113 225.625C10.0969 225.246 10.6023 224.968 11.15 224.81C10.7499 223.851 10.484 222.842 10.36 221.81L10 221.15L10.18 220.88C9.99729 220.734 9.85879 220.54 9.78 220.32C9.61134 219.575 9.33866 218.858 8.97 218.19C8.67543 216.764 8.17343 215.39 7.48 214.11L4.56 207.23L4.15 206.41C3.60559 204.937 2.97448 203.498 2.26 202.1C2 201.35 1.23 199.79 0 197.41L4.33 194.75ZM17.22 200.54C20.62 205 22.9533 211.193 24.22 219.12L18.97 214.43C18.39 211.357 15.9133 206.97 11.54 201.27L17.25 200.34L17.22 200.54ZM13 214.72L15.49 221.56C15.88 222.56 16.22 223.45 16.49 224.31C17.3009 224.467 18.1242 224.55 18.95 224.56C19.22 224.56 20.19 224.48 21.88 224.42H22.51L23.51 224.06L14.39 215.64L13.76 214.96L13.13 214.6L13 214.72ZM21.29 231.44C20.2873 231.06 19.2378 230.818 18.17 230.72C18.4537 231.447 18.606 232.219 18.62 233C19.0271 233.823 19.2587 234.722 19.3 235.64C19.3273 235.982 19.4013 236.318 19.52 236.64C19.7712 237.626 19.9516 238.628 20.06 239.64L20.52 240.82L22.77 239.64C23.77 239.09 24.43 238.74 24.65 238.64L25.28 238.41L26.28 237.69L26.68 237.53L28.13 236.47V235.93C27.1878 235.03 26.1402 234.248 25.01 233.6L24.01 232.93L21.29 231.44Z" fill="#2B2828"/>
<path d="M37.66 209.14C40.1932 208.407 42.7924 207.924 45.42 207.7L48 207.43L57 205.43C58.0668 205.164 59.1156 204.83 60.14 204.43L61.07 205.06C60.4435 209.199 60.9266 213.429 62.47 217.32C62.7451 218.827 63.0989 220.32 63.53 221.79L63.89 223.27L65.15 225.83L65.78 228.42C65.9404 229.049 66.0409 229.692 66.08 230.34V231.47L63.89 237.74L63.26 238.44L58.9 239.14C51.2 238.473 43.0833 240.557 34.55 245.39V239.86L35.18 237.76C35.39 236.835 35.4874 235.888 35.47 234.94L34.55 225.15L33.94 223.29L33.62 221.44C33.41 221.31 33.31 220.96 33.31 220.44L32.7 217.53V215C32.7431 213.503 33.0547 212.027 33.62 210.64L37.66 209.14ZM38.58 216.71L36.68 218C37.4175 219.485 37.843 221.105 37.93 222.76L38.26 223.26L38.58 225.4L38.9 234.76C45.7629 232.132 53.1216 231.053 60.45 231.6C60.8278 230.066 60.6944 228.451 60.07 227C59.8131 226.013 59.6161 225.011 59.48 224L59 221.56L58.55 219.35L58.21 218.35L58.12 216.79L57.98 216.09L57.67 213.34L56.74 212.73L49 214.49L46.68 214.99C45.68 215.19 44.2 215.46 42.26 215.8L41.11 216.19L38.58 216.71ZM41.72 218.65L42.98 218.35C46.7 221.59 46.7 225.84 42.98 231.1C40.88 227.7 40.45 223.55 41.72 218.65ZM51.9 216.23L53.14 216C56.8667 219.213 56.8667 223.457 53.14 228.73C51.0467 225.337 50.6333 221.17 51.9 216.23Z" fill="#2B2828"/>
<path d="M71.2 194.07C72.7664 195.248 74.0622 196.749 75 198.47C75.6914 199.794 76.4768 201.068 77.35 202.28L81.14 210.45L82 211.63C82.7381 213.285 83.6216 214.871 84.64 216.37C85.8596 217.756 86.9289 219.268 87.83 220.88L94.53 229.14C94.5498 228.147 94.7568 227.166 95.14 226.25C95.2709 223.9 95.5582 221.562 96 219.25L96.29 217.71V216.61L96.7 213.91C96.91 212.81 97.06 211.76 97.17 210.77L97.44 209.48L97.85 207.48L98 205.78L98.16 204.52C99.8359 205.117 101.383 206.026 102.72 207.2L102.31 209.69V212.73C102.356 213.945 102.31 215.162 102.17 216.37L102 218.19C101.878 219.185 101.825 220.188 101.84 221.19L101.57 223.04L101.25 230.6C101.218 232.119 101.03 233.63 100.69 235.11C99.32 237 97.19 238 94.27 238.35C92.8639 236.936 91.5949 235.393 90.48 233.74L89 232.19L87.89 230.81L86.89 229.64L85.45 227.64L84.63 226.64L83.75 225.44L82.87 224.18C84.99 232.847 83.3233 236.79 77.87 236.01C77.2507 234.248 76.9559 232.388 77 230.52L76.7 229.64L76.11 226.54C75.4407 224.823 74.9579 223.04 74.67 221.22L74 218.85L73.57 217.77L73.25 216.39L72.62 214.83C72.3803 214.232 72.1734 213.621 72 213L70.55 209.52L70 208.6L67.41 201.72L66.53 200L66.26 199.41L65.38 196.82L65.65 196C67.1821 195.781 68.6585 195.272 70 194.5L71.2 194.07ZM101.9 194.93C102.26 205.597 100.7 206.447 97.22 197.48L101.9 194.93Z" fill="#2B2828"/>
<path d="M110.3 194C111.319 195.921 112.022 197.995 112.38 200.14L112.81 200.79L114.81 203.52C116.823 206.408 119.348 208.902 122.26 210.88C123.631 212.045 125.063 213.136 126.55 214.15C128.444 215.154 130.165 216.454 131.65 218C130.971 219.326 130.12 220.556 129.12 221.66C128.28 222.41 127.39 223.22 126.44 224.09L124.81 225.02L119.81 228.79L117 230.58L115.76 231.35L114.23 232.35C113.284 233.151 112.281 233.883 111.23 234.54L108.5 237.9L104.16 239.63L103.37 240.04C103.072 239.671 102.698 239.372 102.273 239.161C101.849 238.951 101.384 238.834 100.91 238.82C101.028 238.202 101.286 237.62 101.666 237.118C102.046 236.617 102.537 236.21 103.1 235.93C103.322 234.627 103.657 233.345 104.1 232.1L104.37 230.29L104.77 228.49C105.143 226.705 105.363 224.892 105.43 223.07L105.7 221.31L105.86 210.39C105.902 209.405 105.787 208.419 105.52 207.47L105.7 205.96L105.29 205.26L105.13 203C104.44 201.394 103.927 199.717 103.6 198L104 196.78C106.239 196.208 108.368 195.268 110.3 194ZM112.3 209.89C111.522 212.268 111.21 214.774 111.38 217.27L111.15 219.27L111.02 220.49L110.65 222.59L110.39 224C110.161 225.236 110.01 226.485 109.94 227.74C112.147 226.602 114.208 225.202 116.08 223.57L117.32 222.64L118.58 221.74C119.351 221.236 120.077 220.668 120.75 220.04L121.36 219.25L123.17 217.52C121.057 215.356 118.579 213.583 115.85 212.28L112.3 209.89ZM114.58 212.24L119.7 217.79L112.21 223.9L114.85 212.48L114.58 212.24Z" fill="#2B2828"/>
<path d="M168 202.46L169.67 203.41C169.003 204.64 168.531 205.966 168.27 207.34L167.69 208.6L167.5 209.44L167.12 210.34L167.21 215.15C165.03 216.15 163.51 216.5 162.65 216.15C161.79 215.8 161.48 214.47 161.48 212.15C161.498 210.595 161.612 209.042 161.82 207.5L159.88 207.7C158.88 207.76 158.15 207.8 157.6 207.81L153.17 208.04C152.413 207.945 151.647 207.945 150.89 208.04V212.04L151.19 213.39C152.751 214.362 154.432 215.129 156.19 215.67L159.28 216.67H159.85L161.49 217.35L162.67 217.75L163.73 218.07L165.49 218.52L165 222.64C165.5 224.24 161.077 223.173 151.73 219.44C151.58 220.68 151.49 221.71 151.46 222.5L151.19 227.13L150.89 228.76L151.19 229.64C152.942 230.015 154.656 230.55 156.31 231.24C159.729 232.671 162.984 234.465 166.02 236.59L166.58 236.29C165.467 233.75 164.647 231.82 164.12 230.5L163.71 229.59L163.33 227.94C163.761 227.414 164.099 226.819 164.33 226.18C165.27 226.154 166.208 226.276 167.11 226.54C168.638 227.988 169.919 229.677 170.9 231.54L172.19 233L174.47 237.2L175.02 237.9L176.14 239.84L176.69 240.54L177.25 241.74V243.05C176.072 243.956 174.764 244.677 173.37 245.19L172.76 245.71L167.76 243.45L165.63 242.19L162.63 240.45C161.77 239.88 160.63 239.23 159.27 238.45L157.42 237.45L154.64 236.32L152.05 235.32L149.87 235C147.883 234.703 145.865 234.673 143.87 234.91L144 234.16C143.812 233.593 143.738 232.995 143.78 232.4C143.786 231.056 144.129 229.736 144.78 228.56L145.06 226.44V224.9L145.24 222.96L145.35 217.34C144.783 217.02 144.195 216.739 143.59 216.5C141.656 215.688 139.564 215.326 137.47 215.44C137.47 211.44 140 210.107 145.06 211.44L144.78 207.89C144.353 207.652 143.909 207.448 143.45 207.28C142.427 206.872 141.369 206.558 140.29 206.34L138.08 205.43C137.21 205.339 136.354 205.144 135.53 204.85C134.4 204.38 133.84 203.75 133.84 202.95C133.825 202.784 133.825 202.616 133.84 202.45C135.733 200.057 139.12 199.907 144 202L143.73 197.44L148.2 197.24L149.03 197.35C149.62 199.013 149.999 200.743 150.16 202.5L150.7 203.24C152.79 203.38 154.38 203.43 155.46 203.4H160.5L161.9 203.24C163.438 203.228 164.958 202.908 166.37 202.3L168 202.46ZM164.77 216.39L172.67 224.2L164 225.51L168.45 222.69L164.57 216.46L164.77 216.39Z" fill="#2B2828"/>
<path d="M383.241 230.51C372.76 227.127 362.734 226.225 352.025 228.706C341.089 231.186 330.608 235.696 319.671 238.176C297.797 243.137 275.241 242.686 253.139 240.206C231.5 237 242 239.5 197.5 228.706C225 239 238.5 241 249.722 243.137C272.279 246.068 295.063 247.421 317.62 243.588C328.329 241.559 338.582 237.951 349.291 235.245C360.456 232.314 370.025 232.765 380.962 236.598C380.279 238.402 379.595 240.206 378.911 242.01C384.608 241.108 390.304 240.206 396 239.304C392.354 234.794 388.709 230.51 385.063 226C384.38 227.353 383.924 228.931 383.241 230.51Z" fill="#231F20"/>
</svg>
