<svg xmlns="http://www.w3.org/2000/svg" viewBox="0 0 189.71 51.75"><defs><style>.cls-1{fill:#2b2828;}</style></defs><title>Asset 2bonde</title><g id="Layer_2" data-name="Layer 2"><g id="Camada_1" data-name="Camada 1"><path class="cls-1" d="M4.33.75l.84.42.41,1.7a97.37,97.37,0,0,0,19.7,22.88l1.44,1.49c.69.66,1.25,1.22,1.67,1.67l1,1c-1.1,2.14-3.52,3.24-7.27,3.32a18.22,18.22,0,0,0,3.09,2.1c.42.21.85.4,1.27.58l2.91,2,1.44,1,2.08,1.82.4,1.18L32.12,44,29,46.31l-.18.3-3.12,1.87-.22.25-1,.36L24,49.4l-.4,0-2.69,1.53a7.53,7.53,0,0,0-3.56,0,1.9,1.9,0,0,1-1-2.06,3.77,3.77,0,0,1-1.85-.22,14.67,14.67,0,0,1-.63-4.4l-.18-1.4a3.38,3.38,0,0,0-.23-1.4l-.22-2.17-1.45-5.37A10.88,10.88,0,0,1,8.69,33a3.81,3.81,0,0,1,2.46-2.19,11.29,11.29,0,0,1-.79-3L10,27.15l.18-.27a1.26,1.26,0,0,1-.4-.56,8.13,8.13,0,0,0-.81-2.13,14.89,14.89,0,0,0-1.49-4.08L4.56,13.23l-.41-.82A39.79,39.79,0,0,0,2.26,8.1C2,7.35,1.23,5.79,0,3.41ZM17.22,6.54q5.1,6.69,7,18.58l-5.25-4.69q-.87-4.61-7.43-13.16l5.71-.93ZM13,20.72l2.49,6.84c.39,1,.73,1.89,1,2.75a13.85,13.85,0,0,0,2.46.25c.27,0,1.24-.08,2.93-.14l.63,0,1-.36-9.12-8.42-.63-.68-.63-.36Zm8.29,16.72a11.86,11.86,0,0,0-3.12-.72A6.6,6.6,0,0,1,18.62,39a6.63,6.63,0,0,1,.68,2.64,3.75,3.75,0,0,0,.22,1,21.37,21.37,0,0,1,.54,3l.46,1.18,2.25-1.18c1-.55,1.66-.9,1.88-1l.63-.23,1-.72.4-.16,1.45-1.06v-.54a16.15,16.15,0,0,0-3.12-2.33l-1-.67Z"/><path class="cls-1" d="M37.66,15.14a40.22,40.22,0,0,1,7.76-1.44L48,13.43l9-2a25.93,25.93,0,0,0,3.14-1l.93.63a23.65,23.65,0,0,0,1.4,12.26,43.92,43.92,0,0,0,1.06,4.47l.36,1.48,1.26,2.56.63,2.59a10.28,10.28,0,0,1,.3,1.92v1.13l-2.19,6.27-.63.7-4.36.7q-11.55-1-24.35,6.25V45.86l.63-2.1a11.76,11.76,0,0,0,.29-2.82l-.92-9.79-.61-1.86-.32-1.85c-.21-.13-.31-.48-.31-1l-.61-2.91V21a12.5,12.5,0,0,1,.92-4.36Zm.92,7.57L36.68,24a12.13,12.13,0,0,1,1.25,4.76l.33.5.32,2.14.32,9.36A49.89,49.89,0,0,1,60.45,37.6,7.25,7.25,0,0,0,60.07,33,25.33,25.33,0,0,1,59.48,30L59,27.56l-.45-2.21-.34-1-.09-1.56-.14-.7-.31-2.75-.93-.61L49,20.49l-2.32.5c-1,.2-2.48.47-4.42.81l-1.15.39Zm3.14,1.94,1.26-.3q5.58,4.86,0,12.75C40.88,33.7,40.45,29.55,41.72,24.65ZM51.9,22.23,53.14,22q5.59,4.82,0,12.73Q50,29.64,51.9,22.23Z"/><path class="cls-1" d="M71.2.07A13.72,13.72,0,0,1,75,4.47a31.31,31.31,0,0,0,2.35,3.81l3.79,8.17L82,17.63a30.64,30.64,0,0,0,2.64,4.74,26.14,26.14,0,0,1,3.19,4.51l6.7,8.26a7.9,7.9,0,0,1,.61-2.89,53,53,0,0,1,.86-7l.29-1.54V22.61l.41-2.7c.21-1.1.36-2.15.47-3.14l.27-1.29.41-2L98,11.78l.16-1.26a14.06,14.06,0,0,1,4.56,2.68l-.41,2.49,0,1.89v1.15a23.81,23.81,0,0,1-.14,3.64L102,24.19a22,22,0,0,0-.16,3l-.27,1.85-.32,7.56a22.24,22.24,0,0,1-.56,4.51C99.32,43,97.19,44,94.27,44.35a31.56,31.56,0,0,1-3.79-4.61L89,38.19l-1.11-1.38-1-1.17-1.44-2-.82-1-.88-1.2-.88-1.26q3.18,13-5,11.83A15.46,15.46,0,0,1,77,36.52l-.3-.88-.59-3.1a25.7,25.7,0,0,1-1.44-5.32L74,24.85l-.43-1.08-.32-1.38-.63-1.56A17.79,17.79,0,0,1,72,19l-1.45-3.48L70,14.6,67.41,7.72,66.53,6l-.27-.59-.88-2.59L65.65,2A12.18,12.18,0,0,0,70,.5Zm30.7.86q.54,16-4.68,2.55Z"/><path class="cls-1" d="M110.3,0a20.2,20.2,0,0,1,2.08,6.14l.43.65,2,2.73a28.83,28.83,0,0,0,7.45,7.36,51,51,0,0,0,4.29,3.27A20.17,20.17,0,0,1,131.65,24a17,17,0,0,1-2.53,3.66c-.84.75-1.73,1.56-2.68,2.43l-1.63.93-5,3.77L117,36.58l-1.24.77-1.53,1a25.82,25.82,0,0,1-3,2.19L108.5,43.9l-4.34,1.73-.79.41a3.29,3.29,0,0,0-2.46-1.22,4.08,4.08,0,0,1,2.19-2.89,22.92,22.92,0,0,1,1-3.83l.27-1.81.4-1.8a32.3,32.3,0,0,0,.66-5.42l.27-1.76.16-10.92a9.34,9.34,0,0,0-.34-2.92l.18-1.51-.41-.7L105.13,9a24.1,24.1,0,0,1-1.53-5L104,2.78A20.92,20.92,0,0,0,110.3,0Zm2,15.89a19.48,19.48,0,0,0-.92,7.38l-.23,2-.13,1.22-.37,2.1L110.39,30a29.53,29.53,0,0,0-.45,3.74,30.87,30.87,0,0,0,6.14-4.17l1.24-.93,1.26-.9a16.11,16.11,0,0,0,2.17-1.7l.61-.79,1.81-1.73a25.71,25.71,0,0,0-7.32-5.24Zm2.28,2.35,5.12,5.55-7.49,6.11,2.64-11.42Z"/><path class="cls-1" d="M168,8.46l1.67.95a13.56,13.56,0,0,0-1.4,3.93l-.58,1.26-.19.84-.38.9.09,4.81c-2.18,1-3.7,1.35-4.56,1s-1.17-1.68-1.17-4a38.14,38.14,0,0,1,.34-4.65l-1.94.2c-1,.06-1.73.1-2.28.11l-4.43.23a9.18,9.18,0,0,0-2.28,0v4l.3,1.35a21.35,21.35,0,0,0,5,2.28l3.09,1h.57l1.64.68,1.18.4,1.06.32,1.76.45L165,28.64q.75,2.4-13.27-3.2c-.15,1.24-.24,2.27-.27,3.06l-.27,4.63-.3,1.63.3.88a29.11,29.11,0,0,1,5.12,1.6,51.87,51.87,0,0,1,9.71,5.35l.56-.3q-1.67-3.81-2.46-5.79l-.41-.91-.38-1.65a6,6,0,0,0,1-1.76,9,9,0,0,1,2.78.36,19.25,19.25,0,0,1,3.79,5L172.19,39l2.28,4.2.55.7,1.12,1.94.55.7.56,1.2v1.31a14.68,14.68,0,0,1-3.88,2.14l-.61.52-5-2.26-2.13-1.26-3-1.74c-.86-.57-2-1.22-3.36-2l-1.85-1-2.78-1.13-2.59-1L149.87,41a22.58,22.58,0,0,0-6-.09l.13-.75a4.57,4.57,0,0,1-.22-1.76,8,8,0,0,1,1-3.84l.28-2.12V30.9l.18-1.94.11-5.62a14.06,14.06,0,0,0-1.76-.84,13.86,13.86,0,0,0-6.12-1.06q0-6,7.59-4l-.28-3.55a9.39,9.39,0,0,0-1.33-.61,18.32,18.32,0,0,0-3.16-.94l-2.21-.91a11,11,0,0,1-2.55-.58c-1.13-.47-1.69-1.1-1.69-1.9a2.81,2.81,0,0,1,0-.5Q136.68,4.86,144,8l-.27-4.56,4.47-.2.83.11a21.18,21.18,0,0,1,1.13,5.15l.54.74c2.09.14,3.68.19,4.76.16l3.1,0,1.94,0,1.4-.16a11.54,11.54,0,0,0,4.47-.94Zm-3.23,13.93,7.9,7.81L164,31.51l4.45-2.82-3.88-6.23Z"/><path class="cls-1" d="M183.13,22.34h1.06q1.62,5-3.19,8.22-5,1.85-4.15-5a17.91,17.91,0,0,1,5.78-2.64Zm4.71,12.1h1.36q2,6.35-4,10.36-6.32,2.3-5.31-6.34a23,23,0,0,1,7.36-3.32Z"/></g></g></svg>