<svg width="473" height="91" viewBox="0 0 473 91" fill="none" xmlns="http://www.w3.org/2000/svg">
<path d="M10.7654 52.3392C20.1266 52.3392 24.4952 47.0665 24.4952 36.9864L24.4952 15.4304C24.4952 5.35023 20.1266 0.0775386 10.7654 0.0775386L2.80837 0.0775386C1.24816 0.0775386 0 1.31817 0 2.86897L0 49.5478C0 51.0986 1.24816 52.3392 2.80837 52.3392H10.7654ZM10.7654 7.75396C14.8999 7.75396 16.6162 10.2352 16.6162 15.4304L16.6162 36.9864C16.6162 42.1815 14.8999 44.6628 10.7654 44.6628H7.72301L7.72301 7.75396L10.7654 7.75396Z" fill="black" fill-opacity="0.15"/>
<path d="M30.9261 37.1415C30.9261 43.2671 32.6424 46.8339 35.0607 49.2377C37.635 51.7189 40.9114 52.3392 43.7198 52.3392C46.6062 52.3392 49.8826 51.7189 52.4569 49.2377C54.8753 46.8339 56.5135 43.2671 56.5135 37.1415L56.5135 15.1978C56.5135 5.35023 52.3009 0.0775386 43.7198 0.0775386C35.2167 0.0775386 30.9261 5.42777 30.9261 15.1978L30.9261 37.1415ZM38.7272 15.1978C38.7272 10.1577 40.2874 7.75396 43.7198 7.75396C47.0742 7.75396 48.7125 10.0026 48.7125 15.1978L48.7125 37.1415C48.7125 42.4142 46.9962 44.6628 43.7198 44.6628C40.3654 44.6628 38.7272 42.2591 38.7272 37.1415L38.7272 15.1978Z" fill="black" fill-opacity="0.15"/>
<path d="M77.7517 26.1308C73.1491 26.1308 73.3832 33.8848 77.7517 33.8848H80.4821V37.219C80.4821 42.2591 78.8439 44.6628 75.4894 44.6628C72.057 44.6628 70.4188 42.2591 70.4188 37.219C70.4188 35.203 70.4188 27.449 70.4188 15.1202C70.4188 11.5534 71.1209 9.69245 72.213 8.76197C73.0711 7.90904 74.3973 7.75396 75.4894 7.75396C76.5816 7.75396 77.8298 7.90904 78.7659 8.76197C79.702 9.61491 80.4821 11.4759 80.4821 15.1202V16.2058C80.4821 17.7566 81.7303 18.9972 83.2905 18.9972H85.5528C87.0349 18.9972 88.2831 17.7566 88.2831 16.2058V15.1202C88.2831 5.27269 84.0706 0.0775386 75.4894 0.0775386C66.9083 0.0775386 62.6178 5.27269 62.6178 15.1202L62.6178 37.219C62.6178 46.989 66.9083 52.3392 75.4894 52.3392C84.0706 52.3392 88.2831 47.0665 88.2831 37.219V28.9223C88.2831 27.3715 87.0349 26.1308 85.5528 26.1308H77.7517Z" fill="black" fill-opacity="0.15"/>
<path d="M108.671 52.3392C109.841 52.3392 111.089 51.3312 111.401 50.0906L113.975 32.8768L113.975 49.5478C113.975 51.0986 115.223 52.3392 116.784 52.3392H118.968C120.528 52.3392 121.776 51.0986 121.776 49.5478L121.776 2.86897C121.776 1.31817 120.528 0.0775386 118.968 0.0775386L116.628 0.0775386C115.457 0.0775386 114.131 1.08555 113.897 2.24865L107.812 33.4971L101.65 2.24865C101.416 1.08555 100.167 0.0775386 98.9973 0.0775386L96.657 0.0775386C95.0968 0.0775386 93.8486 1.31817 93.8486 2.86897L93.8486 49.5478C93.8486 51.0986 95.0968 52.3392 96.657 52.3392H98.8413C100.323 52.3392 101.65 51.0986 101.65 49.5478L101.65 32.7217L104.302 50.1681C104.536 51.3312 105.784 52.3392 106.954 52.3392H108.671Z" fill="black" fill-opacity="0.15"/>
<path d="M131.322 0.0775386C129.761 0.0775386 128.513 1.31817 128.513 2.86897V49.5478C128.513 51.0986 129.761 52.3392 131.322 52.3392H148.172C149.732 52.3392 150.98 51.0986 150.98 49.5478V47.4542C150.98 45.9034 149.732 44.6628 148.172 44.6628H136.236V30.0078L146.065 30.0078C147.626 30.0078 148.874 28.7672 148.874 27.2164V25.1228C148.874 23.572 147.626 22.3314 146.065 22.3314L136.236 22.3314V7.75396L148.172 7.75396C149.732 7.75396 150.98 6.51333 150.98 4.96254V2.86897C150.98 1.31817 149.732 0.0775386 148.172 0.0775386L131.322 0.0775386Z" fill="black" fill-opacity="0.15"/>
<path d="M177.78 47.4542C177.78 45.9034 176.531 44.6628 174.971 44.6628H163.348V2.86897C163.348 1.31817 162.1 0.0775386 160.617 0.0775386L158.355 0.0775386C156.795 0.0775386 155.547 1.31817 155.547 2.86897V49.5478C155.547 51.0986 156.795 52.3392 158.355 52.3392H174.971C176.531 52.3392 177.78 51.0986 177.78 49.5478V47.4542Z" fill="black" fill-opacity="0.15"/>
<path d="M213.736 26.1308C209.134 26.1308 209.368 33.8848 213.736 33.8848H216.467V37.219C216.467 42.2591 214.828 44.6628 211.474 44.6628C208.041 44.6628 206.403 42.2591 206.403 37.219C206.403 35.203 206.403 27.449 206.403 15.1202C206.403 11.5534 207.105 9.69245 208.198 8.76197C209.056 7.90904 210.382 7.75396 211.474 7.75396C212.566 7.75396 213.814 7.90904 214.75 8.76197C215.686 9.61491 216.467 11.4759 216.467 15.1202V16.2058C216.467 17.7566 217.715 18.9972 219.275 18.9972H221.537C223.019 18.9972 224.268 17.7566 224.268 16.2058V15.1202C224.268 5.27269 220.055 0.0775386 211.474 0.0775386C202.893 0.0775386 198.602 5.27269 198.602 15.1202V37.219C198.602 46.989 202.893 52.3392 211.474 52.3392C220.055 52.3392 224.268 47.0665 224.268 37.219V28.9223C224.268 27.3715 223.019 26.1308 221.537 26.1308H213.736Z" fill="black" fill-opacity="0.15"/>
<path d="M251.208 50.1681C251.52 51.3312 252.768 52.3392 253.938 52.3392H256.201C258.073 52.3392 259.321 50.7109 258.931 48.9275L248.166 2.24865C247.931 1.08555 246.605 0.0775386 245.435 0.0775386L243.719 0.0775386C242.549 0.0775386 241.301 1.08555 240.989 2.24865L233.89 32.5666L230.145 49.005C229.755 50.7884 231.003 52.3392 232.876 52.3392H235.138C236.308 52.3392 237.556 51.3312 237.868 50.1681L240.599 38.0719L248.556 38.0719L251.208 50.1681ZM244.577 17.9892C246.059 24.5801 245.903 26.6736 246.761 30.3955H242.393L244.577 17.9892Z" fill="black" fill-opacity="0.15"/>
<path d="M279.165 52.3392C280.336 52.3392 281.584 51.3312 281.896 50.0906L284.47 32.8768V49.5478C284.47 51.0986 285.718 52.3392 287.278 52.3392H289.463C291.023 52.3392 292.271 51.0986 292.271 49.5478V2.86897C292.271 1.31817 291.023 0.0775386 289.463 0.0775386L287.122 0.0775386C285.952 0.0775386 284.626 1.08555 284.392 2.24865L278.307 33.4971L272.144 2.24865C271.91 1.08555 270.662 0.0775386 269.492 0.0775386L267.152 0.0775386C265.592 0.0775386 264.343 1.31817 264.343 2.86897V49.5478C264.343 51.0986 265.592 52.3392 267.152 52.3392H269.336C270.818 52.3392 272.144 51.0986 272.144 49.5478V32.7217L274.797 50.1681C275.031 51.3312 276.279 52.3392 277.449 52.3392H279.165Z" fill="black" fill-opacity="0.15"/>
<path d="M301.816 0.0775386C300.256 0.0775386 299.008 1.31817 299.008 2.86897V49.5478C299.008 51.0986 300.256 52.3392 301.816 52.3392H318.667C320.227 52.3392 321.475 51.0986 321.475 49.5478V47.4542C321.475 45.9034 320.227 44.6628 318.667 44.6628H306.731V30.0078H316.56C318.121 30.0078 319.369 28.7672 319.369 27.2164V25.1228C319.369 23.572 318.121 22.3314 316.56 22.3314H306.731V7.75396L318.667 7.75396C320.227 7.75396 321.475 6.51333 321.475 4.96254V2.86897C321.475 1.31817 320.227 0.0775386 318.667 0.0775386L301.816 0.0775386Z" fill="black" fill-opacity="0.15"/>
<path d="M324.074 37.1415C324.074 47.2992 328.364 52.2617 336.945 52.2617C345.214 52.2617 349.817 47.6093 349.817 38.9249C349.817 31.4035 344.59 27.449 339.442 23.4945H339.52C335.697 20.548 331.875 17.524 331.875 13.5694C331.875 9.53737 333.669 7.75396 336.945 7.75396C340.378 7.75396 342.016 10.0801 342.016 15.1978V16.2833C342.016 17.8341 343.264 19.0747 344.824 19.0747H347.009C348.569 19.0747 349.817 17.8341 349.817 16.2833V15.1978C349.817 5.35023 345.37 0 336.945 0C328.676 0 324.074 5.04007 324.074 13.8021C324.074 21.4785 329.456 25.6656 334.605 29.6977V29.6201C338.428 32.5666 342.016 35.4356 342.016 39.08C342.016 43.1896 340.222 44.5853 336.945 44.5853C335.853 44.5853 334.527 44.4302 333.669 43.5773C332.577 42.6468 331.875 40.8634 331.875 37.1415V36.1335C331.875 34.5827 330.548 33.342 329.066 33.342H326.882C325.322 33.342 324.074 34.5827 324.074 36.1335V37.1415Z" fill="black" fill-opacity="0.15"/>
<path d="M371.535 37.1415C371.535 47.2992 375.825 52.2617 384.407 52.2617C392.676 52.2617 397.278 47.6093 397.278 38.9249C397.278 31.4035 392.052 27.449 386.903 23.4945H386.981C383.158 20.548 379.336 17.524 379.336 13.5694C379.336 9.53737 381.13 7.75396 384.407 7.75396C387.839 7.75396 389.477 10.0801 389.477 15.1978V16.2833C389.477 17.8341 390.725 19.0747 392.286 19.0747H394.47C396.03 19.0747 397.278 17.8341 397.278 16.2833V15.1978C397.278 5.35023 392.832 0 384.407 0C376.138 0 371.535 5.04007 371.535 13.8021C371.535 21.4785 376.918 25.6656 382.066 29.6977V29.6201C385.889 32.5666 389.477 35.4356 389.477 39.08C389.477 43.1896 387.683 44.5853 384.407 44.5853C383.314 44.5853 381.988 44.4302 381.13 43.5773C380.038 42.6468 379.336 40.8634 379.336 37.1415V36.1335C379.336 34.5827 378.01 33.342 376.528 33.342L374.343 33.342C372.783 33.342 371.535 34.5827 371.535 36.1335V37.1415Z" fill="black" fill-opacity="0.15"/>
<path d="M413.538 52.3392C422.9 52.3392 427.268 47.0665 427.268 36.9864V15.4304C427.268 5.35023 422.9 0.0775386 413.538 0.0775386L405.581 0.0775386C404.021 0.0775386 402.773 1.31817 402.773 2.86897V49.5478C402.773 51.0986 404.021 52.3392 405.581 52.3392H413.538ZM413.538 7.75396C417.673 7.75396 419.389 10.2352 419.389 15.4304V36.9864C419.389 42.1815 417.673 44.6628 413.538 44.6628H410.496V7.75396L413.538 7.75396Z" fill="black" fill-opacity="0.15"/>
<path d="M458.819 36.5212C458.819 32.4891 457.726 29.31 455.464 26.9062C455.698 26.6736 455.854 26.5185 456.088 26.2859C458.506 23.8822 459.365 20.0052 459.365 15.1978C459.365 4.80745 456.01 0 446.415 0L436.586 0C435.025 0 433.777 1.24063 433.777 2.79142V49.4703C433.777 51.0211 435.025 52.2617 436.586 52.2617H438.77C440.252 52.2617 441.5 51.0211 441.5 49.4703V30.4731H445.011C448.833 30.4731 451.017 32.6442 451.017 36.5212V49.4703C451.017 51.0211 452.266 52.2617 453.826 52.2617H456.01C457.57 52.2617 458.819 51.0211 458.819 49.4703V36.5212ZM441.5 7.75396L446.415 7.75396C450.471 7.75396 451.642 9.92507 451.642 15.1978C451.642 20.4705 449.379 22.6416 445.011 22.6416H441.5V7.75396Z" fill="black" fill-opacity="0.15"/>
<path d="M472.27 46.6013C472.27 45.0505 470.944 43.8099 469.462 43.8099H467.2C465.718 43.8099 464.391 45.0505 464.391 46.6013V49.5478C464.391 51.0986 465.718 52.3392 467.2 52.3392H469.462C470.944 52.3392 472.27 51.0986 472.27 49.5478V46.6013Z" fill="black" fill-opacity="0.15"/>
<path d="M5.03879 90.0722C9.40575 90.0722 11.3466 87.6486 11.3466 82.7636C11.3466 80.4537 10.7121 78.5224 9.74167 77.3106C9.74167 77.3106 11.3466 75.3793 11.3466 71.8576C11.3466 66.9726 9.40575 64.549 5.03879 64.549H1.34368C0.597191 64.549 0 65.1549 0 65.9123L0 88.7089C0 89.4663 0.597191 90.0722 1.34368 90.0722H5.03879ZM5.03879 68.298C6.86769 68.298 7.61418 69.3204 7.61418 71.8576C7.61418 74.3948 6.86769 75.4172 5.03879 75.4172H3.73244L3.73244 68.298H5.03879ZM5.03879 79.1662C6.86769 79.1662 7.61418 80.1886 7.61418 82.7636C7.61418 85.3008 6.86769 86.3232 5.03879 86.3232H3.73244L3.73244 79.1662H5.03879Z" fill="black" fill-opacity="0.15"/>
<path d="M15.48 64.549C14.7335 64.549 14.1363 65.1549 14.1363 65.9123L14.1363 88.7089C14.1363 89.4663 14.7335 90.0722 15.48 90.0722H23.5421C24.2886 90.0722 24.8858 89.4663 24.8858 88.7089V87.6865C24.8858 86.9291 24.2886 86.3232 23.5421 86.3232H17.8314V79.1662H22.5343C23.2808 79.1662 23.878 78.5603 23.878 77.8029V76.7805C23.878 76.0231 23.2808 75.4172 22.5343 75.4172H17.8314V68.298H23.5421C24.2886 68.298 24.8858 67.6921 24.8858 66.9347V65.9123C24.8858 65.1549 24.2886 64.549 23.5421 64.549H15.48Z" fill="black" fill-opacity="0.15"/>
<path d="M27.2573 82.65C27.2573 85.6416 28.0785 87.3836 29.2355 88.5575C30.4672 89.7692 31.9975 90.0722 33.4158 90.0722C34.7595 90.0722 36.3271 89.7692 37.5589 88.5575C38.7159 87.3836 39.4997 85.6416 39.4997 82.65V82.1199C39.4997 81.3625 38.9025 80.7566 38.1934 80.7566H37.111C36.3645 80.7566 35.7673 81.3625 35.7673 82.1199V82.65C35.7673 84.0133 35.5807 85.0357 35.1328 85.6416C34.7968 86.0203 34.125 86.3232 33.4158 86.3232C31.8109 86.3232 31.0271 85.1872 31.0271 82.65L31.0271 71.9333C31.0271 69.3962 31.8482 68.298 33.4158 68.298C34.9461 68.298 35.7673 69.3962 35.7673 71.9333V72.4635C35.7673 73.2209 36.3645 73.8267 37.111 73.8267H38.1934C38.9025 73.8267 39.4997 73.2209 39.4997 72.4635V71.9333C39.4997 69.0554 38.7159 67.1619 37.5215 66.0259C36.2898 64.8899 34.7968 64.549 33.4158 64.549C31.9975 64.549 30.5045 64.8899 29.2728 66.0259C28.0785 67.1619 27.2573 69.0554 27.2573 71.9333L27.2573 82.65Z" fill="black" fill-opacity="0.15"/>
<path d="M52.1734 89.0119C52.3227 89.5799 52.9199 90.0722 53.4798 90.0722H54.5622C55.4579 90.0722 56.0551 89.277 55.8685 88.406L50.7177 65.6093C50.6058 65.0413 49.9713 64.549 49.4114 64.549H48.5903C48.0304 64.549 47.4332 65.0413 47.2839 65.6093L43.8874 80.4158L42.0958 88.4439C41.9092 89.3148 42.5064 90.0722 43.4022 90.0722H44.4846C45.0444 90.0722 45.6416 89.5799 45.7909 89.0119L47.0973 83.1044H50.9044L52.1734 89.0119ZM49.0008 73.2966C49.71 76.5154 49.6353 77.5378 50.0459 79.3555L47.9557 79.3555L49.0008 73.2966Z" fill="black" fill-opacity="0.15"/>
<path d="M58.2716 83.1044C58.2716 87.1185 59.9138 90.0343 64.3928 90.0343C68.7224 90.0343 70.514 87.3457 70.514 83.1044V65.8744C70.514 65.1171 69.9168 64.5112 69.1703 64.5112H68.1252C67.416 64.5112 66.8189 65.1171 66.8189 65.8744V83.1044C66.8189 84.9221 66.2963 86.2854 64.3928 86.2854C62.5639 86.2854 61.9667 85.1115 61.9667 83.1044V65.8744C61.9667 65.1171 61.3695 64.5112 60.623 64.5112H59.5779C58.8688 64.5112 58.2716 65.1171 58.2716 65.8744V83.1044Z" fill="black" fill-opacity="0.15"/>
<path d="M72.9304 82.65C72.9304 87.6108 74.9833 90.0343 79.089 90.0343C83.0453 90.0343 85.2475 87.7622 85.2475 83.521C85.2475 79.8478 82.7467 77.9165 80.2833 75.9852H80.3207C78.4918 74.5462 76.6629 73.0694 76.6629 71.1381C76.6629 69.169 77.5213 68.298 79.089 68.298C80.7312 68.298 81.515 69.434 81.515 71.9333V72.4635C81.515 73.2209 82.1122 73.8267 82.8587 73.8267H83.9038C84.6503 73.8267 85.2475 73.2209 85.2475 72.4635V71.9333C85.2475 67.1241 83.12 64.5112 79.089 64.5112C75.1326 64.5112 72.9304 66.9726 72.9304 71.2517C72.9304 75.0007 75.5058 77.0455 77.9692 79.0147V78.9768C79.7981 80.4158 81.515 81.8169 81.515 83.5967C81.515 85.6037 80.6566 86.2854 79.089 86.2854C78.5664 86.2854 77.9319 86.2096 77.5213 85.7931C76.9988 85.3387 76.6629 84.4677 76.6629 82.65V82.1577C76.6629 81.4004 76.0284 80.7945 75.3192 80.7945H74.2741C73.5276 80.7945 72.9304 81.4004 72.9304 82.1577V82.65Z" fill="black" fill-opacity="0.15"/>
<path d="M89.1082 64.549C88.3617 64.549 87.7645 65.1549 87.7645 65.9123V88.7089C87.7645 89.4663 88.3617 90.0722 89.1082 90.0722H97.1703C97.9168 90.0722 98.514 89.4663 98.514 88.7089V87.6865C98.514 86.9291 97.9168 86.3232 97.1703 86.3232H91.4597V79.1662H96.1625C96.909 79.1662 97.5062 78.5603 97.5062 77.8029V76.7805C97.5062 76.0231 96.909 75.4172 96.1625 75.4172H91.4597V68.298H97.1703C97.9168 68.298 98.514 67.6921 98.514 66.9347V65.9123C98.514 65.1549 97.9168 64.549 97.1703 64.549H89.1082Z" fill="black" fill-opacity="0.15"/>
<path d="M114.06 90.0722C118.427 90.0722 120.367 87.6486 120.367 82.7636C120.367 80.4537 119.733 78.5224 118.762 77.3106C118.762 77.3106 120.367 75.3793 120.367 71.8576C120.367 66.9726 118.427 64.549 114.06 64.549H110.364C109.618 64.549 109.021 65.1549 109.021 65.9123V88.7089C109.021 89.4663 109.618 90.0722 110.364 90.0722H114.06ZM114.06 68.298C115.888 68.298 116.635 69.3204 116.635 71.8576C116.635 74.3948 115.888 75.4172 114.06 75.4172H112.753V68.298H114.06ZM114.06 79.1662C115.888 79.1662 116.635 80.1886 116.635 82.7636C116.635 85.3008 115.888 86.3232 114.06 86.3232H112.753V79.1662H114.06Z" fill="black" fill-opacity="0.15"/>
<path d="M135.213 82.3471C135.213 80.3779 134.69 78.8253 133.608 77.6514C133.72 77.5378 133.795 77.4621 133.907 77.3485C135.064 76.1746 135.474 74.2812 135.474 71.9333C135.474 66.859 133.869 64.5112 129.278 64.5112H124.575C123.829 64.5112 123.232 65.1171 123.232 65.8744V88.6711C123.232 89.4284 123.829 90.0343 124.575 90.0343H125.621C126.33 90.0343 126.927 89.4284 126.927 88.6711V79.3934L128.606 79.3934C130.435 79.3934 131.48 80.4537 131.48 82.3471V88.6711C131.48 89.4284 132.078 90.0343 132.824 90.0343H133.869C134.616 90.0343 135.213 89.4284 135.213 88.6711V82.3471ZM126.927 68.298H129.278C131.219 68.298 131.779 69.3583 131.779 71.9333C131.779 74.5084 130.697 75.5687 128.606 75.5687L126.927 75.5687V68.298Z" fill="black" fill-opacity="0.15"/>
<path d="M146.76 89.0119C146.909 89.5799 147.507 90.0722 148.067 90.0722H149.149C150.045 90.0722 150.642 89.277 150.455 88.406L145.305 65.6093C145.193 65.0413 144.558 64.549 143.998 64.549H143.177C142.617 64.549 142.02 65.0413 141.871 65.6093L138.474 80.4158L136.683 88.4439C136.496 89.3148 137.093 90.0722 137.989 90.0722H139.071C139.631 90.0722 140.228 89.5799 140.378 89.0119L141.684 83.1044H145.491L146.76 89.0119ZM143.588 73.2966C144.297 76.5154 144.222 77.5378 144.633 79.3555H142.542L143.588 73.2966Z" fill="black" fill-opacity="0.15"/>
<path d="M165.399 65.9123C165.399 65.1549 164.802 64.549 164.056 64.549H154.127C153.381 64.549 152.784 65.1549 152.784 65.9123V66.9347C152.784 67.6921 153.381 68.298 154.127 68.298H160.846L152.97 87.3836V88.7089C152.97 89.4663 153.567 90.0722 154.277 90.0722H163.906C164.615 90.0722 165.25 89.4663 165.25 88.7089V87.6865C165.25 86.9291 164.615 86.3232 163.906 86.3232H157.487L165.399 67.1998V65.9123Z" fill="black" fill-opacity="0.15"/>
<path d="M172.048 65.9123C172.048 65.1549 171.413 64.549 170.704 64.549H169.659C168.913 64.549 168.316 65.1549 168.316 65.9123V88.7089C168.316 89.4663 168.913 90.0722 169.659 90.0722H170.704C171.413 90.0722 172.048 89.4663 172.048 88.7089V65.9123Z" fill="black" fill-opacity="0.15"/>
<path d="M184.965 87.6865C184.965 86.9291 184.367 86.3232 183.621 86.3232H178.06V65.9123C178.06 65.1549 177.462 64.549 176.753 64.549H175.671C174.924 64.549 174.327 65.1549 174.327 65.9123V88.7089C174.327 89.4663 174.924 90.0722 175.671 90.0722H183.621C184.367 90.0722 184.965 89.4663 184.965 88.7089V87.6865Z" fill="black" fill-opacity="0.15"/>
<path d="M190.674 65.9123C190.674 65.1549 190.039 64.549 189.33 64.549H188.285C187.539 64.549 186.941 65.1549 186.941 65.9123V88.7089C186.941 89.4663 187.539 90.0722 188.285 90.0722H189.33C190.039 90.0722 190.674 89.4663 190.674 88.7089V65.9123Z" fill="black" fill-opacity="0.15"/>
<path d="M203.366 89.0119C203.516 89.5799 204.113 90.0722 204.673 90.0722H205.755C206.651 90.0722 207.248 89.277 207.062 88.406L201.911 65.6093C201.799 65.0413 201.164 64.549 200.604 64.549H199.783C199.223 64.549 198.626 65.0413 198.477 65.6093L195.08 80.4158L193.289 88.4439C193.102 89.3148 193.699 90.0722 194.595 90.0722H195.678C196.237 90.0722 196.835 89.5799 196.984 89.0119L198.29 83.1044H202.097L203.366 89.0119ZM200.194 73.2966C200.903 76.5154 200.828 77.5378 201.239 79.3555H199.149L200.194 73.2966Z" fill="black" fill-opacity="0.15"/>
<path d="M219.279 90.0722C220.025 90.0722 220.622 89.4663 220.622 88.7089V65.9123C220.622 65.1549 220.025 64.549 219.279 64.549H218.233C217.487 64.549 216.89 65.1549 216.89 65.9123V78.4088L211.702 65.3821C211.552 64.9656 210.955 64.549 210.47 64.549H209.574C208.865 64.549 208.231 65.1549 208.231 65.9123V88.7089C208.231 89.4663 208.865 90.0722 209.574 90.0722H210.657C211.366 90.0722 212 89.4663 212 88.7089V76.2124L217.188 89.2391C217.338 89.6556 217.972 90.0722 218.42 90.0722H219.279Z" fill="black" fill-opacity="0.15"/>
<path d="M238.654 77.2727C236.452 77.2727 236.564 81.0596 238.654 81.0596H239.961V82.6879C239.961 85.1493 239.177 86.3232 237.572 86.3232C235.93 86.3232 235.146 85.1493 235.146 82.6879C235.146 81.7033 235.146 77.9165 235.146 71.8955C235.146 70.1535 235.482 69.2447 236.004 68.7903C236.415 68.3737 237.049 68.298 237.572 68.298C238.094 68.298 238.692 68.3737 239.14 68.7903C239.587 69.2068 239.961 70.1157 239.961 71.8955V72.4256C239.961 73.183 240.558 73.7889 241.304 73.7889H242.387C243.096 73.7889 243.693 73.183 243.693 72.4256V71.8955C243.693 67.0862 241.678 64.549 237.572 64.549C233.466 64.549 231.413 67.0862 231.413 71.8955V82.6879C231.413 87.4593 233.466 90.0722 237.572 90.0722C241.678 90.0722 243.693 87.4972 243.693 82.6879V78.636C243.693 77.8786 243.096 77.2727 242.387 77.2727H238.654Z" fill="black" fill-opacity="0.15"/>
<path d="M256.583 89.0119C256.732 89.5799 257.329 90.0722 257.889 90.0722H258.972C259.867 90.0722 260.465 89.277 260.278 88.406L255.127 65.6093C255.015 65.0413 254.381 64.549 253.821 64.549H253C252.44 64.549 251.843 65.0413 251.693 65.6093L248.297 80.4158L246.505 88.4439C246.319 89.3148 246.916 90.0722 247.812 90.0722H248.894C249.454 90.0722 250.051 89.5799 250.2 89.0119L251.507 83.1044H255.314L256.583 89.0119ZM253.41 73.2966C254.119 76.5154 254.045 77.5378 254.455 79.3555H252.365L253.41 73.2966Z" fill="black" fill-opacity="0.15"/>
<path d="M269.959 90.0722C270.519 90.0722 271.116 89.5799 271.266 88.974L272.497 80.5673V88.7089C272.497 89.4663 273.095 90.0722 273.841 90.0722H274.886C275.633 90.0722 276.23 89.4663 276.23 88.7089V65.9123C276.23 65.1549 275.633 64.549 274.886 64.549H273.766C273.206 64.549 272.572 65.0413 272.46 65.6093L269.549 80.8702L266.6 65.6093C266.488 65.0413 265.891 64.549 265.331 64.549H264.211C263.465 64.549 262.868 65.1549 262.868 65.9123V88.7089C262.868 89.4663 263.465 90.0722 264.211 90.0722H265.256C265.966 90.0722 266.6 89.4663 266.6 88.7089V80.4915L267.869 89.0119C267.981 89.5799 268.578 90.0722 269.138 90.0722H269.959Z" fill="black" fill-opacity="0.15"/>
<path d="M280.797 64.549C280.05 64.549 279.453 65.1549 279.453 65.9123V88.7089C279.453 89.4663 280.05 90.0722 280.797 90.0722H288.859C289.605 90.0722 290.203 89.4663 290.203 88.7089V87.6865C290.203 86.9291 289.605 86.3232 288.859 86.3232H283.148V79.1662H287.851C288.598 79.1662 289.195 78.5603 289.195 77.8029V76.7805C289.195 76.0231 288.598 75.4172 287.851 75.4172H283.148V68.298H288.859C289.605 68.298 290.203 67.6921 290.203 66.9347V65.9123C290.203 65.1549 289.605 64.549 288.859 64.549H280.797Z" fill="black" fill-opacity="0.15"/>
<path d="M291.446 82.65C291.446 87.6108 293.499 90.0343 297.604 90.0343C301.561 90.0343 303.763 87.7622 303.763 83.521C303.763 79.8478 301.262 77.9165 298.799 75.9852H298.836C297.007 74.5462 295.178 73.0694 295.178 71.1381C295.178 69.169 296.037 68.298 297.604 68.298C299.247 68.298 300.03 69.434 300.03 71.9333V72.4635C300.03 73.2209 300.628 73.8267 301.374 73.8267H302.419C303.166 73.8267 303.763 73.2209 303.763 72.4635V71.9333C303.763 67.1241 301.635 64.5112 297.604 64.5112C293.648 64.5112 291.446 66.9726 291.446 71.2517C291.446 75.0007 294.021 77.0455 296.485 79.0147V78.9768C298.314 80.4158 300.03 81.8169 300.03 83.5967C300.03 85.6037 299.172 86.2854 297.604 86.2854C297.082 86.2854 296.447 86.2096 296.037 85.7931C295.514 85.3387 295.178 84.4677 295.178 82.65V82.1577C295.178 81.4004 294.544 80.7945 293.835 80.7945H292.79C292.043 80.7945 291.446 81.4004 291.446 82.1577V82.65Z" fill="black" fill-opacity="0.15"/>
<path d="M324.306 89.0119C324.456 89.5799 325.053 90.0722 325.613 90.0722H326.695C327.591 90.0722 328.188 89.277 328.001 88.406L322.851 65.6093C322.739 65.0413 322.104 64.549 321.544 64.549H320.723C320.163 64.549 319.566 65.0413 319.417 65.6093L316.02 80.4158L314.229 88.4439C314.042 89.3148 314.639 90.0722 315.535 90.0722H316.617C317.177 90.0722 317.774 89.5799 317.924 89.0119L319.23 83.1044H323.037L324.306 89.0119ZM321.134 73.2966C321.843 76.5154 321.768 77.5378 322.179 79.3555H320.089L321.134 73.2966Z" fill="black" fill-opacity="0.15"/>
<path d="M341.518 82.3471C341.518 80.3779 340.995 78.8253 339.913 77.6514C340.025 77.5378 340.099 77.4621 340.211 77.3485C341.368 76.1746 341.779 74.2812 341.779 71.9333C341.779 66.859 340.174 64.5112 335.583 64.5112H330.88C330.134 64.5112 329.537 65.1171 329.537 65.8744V88.6711C329.537 89.4284 330.134 90.0343 330.88 90.0343H331.925C332.635 90.0343 333.232 89.4284 333.232 88.6711V79.3934H334.911C336.74 79.3934 337.785 80.4537 337.785 82.3471V88.6711C337.785 89.4284 338.382 90.0343 339.129 90.0343H340.174C340.921 90.0343 341.518 89.4284 341.518 88.6711V82.3471ZM333.232 68.298H335.583C337.524 68.298 338.084 69.3583 338.084 71.9333C338.084 74.5084 337.001 75.5687 334.911 75.5687H333.232V68.298Z" fill="black" fill-opacity="0.15"/>
<path d="M345.677 64.549C344.931 64.549 344.333 65.1549 344.333 65.9123V88.7089C344.333 89.4663 344.931 90.0722 345.677 90.0722H353.739C354.486 90.0722 355.083 89.4663 355.083 88.7089V87.6865C355.083 86.9291 354.486 86.3232 353.739 86.3232H348.028V79.1662H352.731C353.478 79.1662 354.075 78.5603 354.075 77.8029V76.7805C354.075 76.0231 353.478 75.4172 352.731 75.4172H348.028V68.298H353.739C354.486 68.298 355.083 67.6921 355.083 66.9347V65.9123C355.083 65.1549 354.486 64.549 353.739 64.549H345.677Z" fill="black" fill-opacity="0.15"/>
<path d="M365.216 66.9347C365.216 67.6921 365.814 68.298 366.56 68.298H369.583V88.6711C369.583 89.4284 370.181 90.0343 370.927 90.0343H371.935C372.681 90.0343 373.278 89.4284 373.278 88.6711V68.298H376.339C377.086 68.298 377.683 67.6921 377.683 66.9347V65.8744C377.683 65.1171 377.086 64.5112 376.339 64.5112H366.56C365.814 64.5112 365.216 65.1171 365.216 65.8744V66.9347Z" fill="black" fill-opacity="0.15"/>
<path d="M382.621 75.4551V65.9123C382.621 65.1549 382.024 64.549 381.277 64.549H380.232C379.486 64.549 378.888 65.1549 378.888 65.9123V88.7089C378.888 89.4663 379.486 90.0722 380.232 90.0722H381.277C382.024 90.0722 382.621 89.4663 382.621 88.7089V79.204H386.764V88.7089C386.764 89.4663 387.361 90.0722 388.108 90.0722H389.153C389.899 90.0722 390.496 89.4663 390.496 88.7089V65.9123C390.496 65.1549 389.899 64.549 389.153 64.549H388.108C387.361 64.549 386.764 65.1549 386.764 65.9123V75.4551H382.621Z" fill="black" fill-opacity="0.15"/>
<path d="M394.884 64.549C394.138 64.549 393.54 65.1549 393.54 65.9123V88.7089C393.54 89.4663 394.138 90.0722 394.884 90.0722H402.946C403.693 90.0722 404.29 89.4663 404.29 88.7089V87.6865C404.29 86.9291 403.693 86.3232 402.946 86.3232H397.235V79.1662H401.938C402.685 79.1662 403.282 78.5603 403.282 77.8029V76.7805C403.282 76.0231 402.685 75.4172 401.938 75.4172H397.235V68.298L402.946 68.298C403.693 68.298 404.29 67.6921 404.29 66.9347V65.9123C404.29 65.1549 403.693 64.549 402.946 64.549L394.884 64.549Z" fill="black" fill-opacity="0.15"/>
<path d="M415.767 64.549C415.021 64.549 414.423 65.1549 414.423 65.9123V88.7089C414.423 89.4663 415.021 90.0722 415.767 90.0722H416.812C417.521 90.0722 418.156 89.4663 418.156 88.7089V79.1662H422.336C423.083 79.1662 423.68 78.5603 423.68 77.8029V76.7805C423.68 76.0231 423.083 75.4172 422.336 75.4172H418.156V68.298H423.829C424.576 68.298 425.173 67.6921 425.173 66.9347V65.9123C425.173 65.1549 424.576 64.549 423.829 64.549H415.767Z" fill="black" fill-opacity="0.15"/>
<path d="M438.326 87.6865C438.326 86.9291 437.729 86.3232 436.982 86.3232H431.421V65.9123C431.421 65.1549 430.824 64.549 430.115 64.549H429.032C428.286 64.549 427.688 65.1549 427.688 65.9123V88.7089C427.688 89.4663 428.286 90.0722 429.032 90.0722H436.982C437.729 90.0722 438.326 89.4663 438.326 88.7089V87.6865Z" fill="black" fill-opacity="0.15"/>
<path d="M440.452 82.65C440.452 85.6416 441.273 87.3836 442.43 88.5575C443.662 89.7692 445.229 90.0722 446.573 90.0722C447.954 90.0722 449.522 89.7692 450.753 88.5575C451.91 87.3836 452.694 85.6416 452.694 82.65V71.9333C452.694 67.1241 450.679 64.549 446.573 64.549C442.505 64.549 440.452 67.1619 440.452 71.9333V82.65ZM444.184 71.9333C444.184 69.4719 444.931 68.298 446.573 68.298C448.178 68.298 448.962 69.3962 448.962 71.9333V82.65C448.962 85.2251 448.141 86.3232 446.573 86.3232C444.968 86.3232 444.184 85.1493 444.184 82.65V71.9333Z" fill="black" fill-opacity="0.15"/>
<path d="M464.905 65.6472C464.793 65.0413 464.195 64.549 463.598 64.549H462.777C462.18 64.549 461.583 65.0413 461.471 65.6472L459.53 77.1591L457.813 65.6851C457.701 65.0413 457.104 64.549 456.469 64.549H455.387C454.528 64.549 453.969 65.2685 454.081 66.1016L457.738 88.9361C457.85 89.542 458.41 90.0722 459.045 90.0722H459.866C460.463 90.0722 461.06 89.5799 461.172 88.974L463.188 76.8941L465.166 88.974C465.278 89.5799 465.875 90.0722 466.472 90.0722H467.331C467.965 90.0722 468.562 89.542 468.674 88.9361L472.258 66.1016C472.37 65.2685 471.735 64.549 470.914 64.549H469.831C469.197 64.549 468.562 65.0413 468.488 65.6851L466.808 77.0834L464.905 65.6472Z" fill="black" fill-opacity="0.15"/>
</svg>
