<svg width="145" height="761" viewBox="0 0 145 761" fill="none" xmlns="http://www.w3.org/2000/svg">
<path d="M84.2568 742.94C84.2568 727.87 75.7687 720.838 59.5414 720.838L24.8401 720.838C8.61291 720.838 0.124822 727.87 0.124822 742.94L0.124823 755.749C0.124823 758.261 2.12202 760.27 4.61852 760.27L79.7631 760.27C82.2596 760.27 84.2568 758.261 84.2568 755.749L84.2568 742.94ZM12.4825 742.94C12.4825 736.284 16.4769 733.521 24.8401 733.521L59.5414 733.521C67.9047 733.521 71.8991 736.284 71.8991 742.94L71.8991 747.838L12.4825 747.838L12.4825 742.94Z" fill="black" fill-opacity="0.15"/>
<path d="M59.7911 710.485C69.6523 710.485 75.3942 707.722 79.2638 703.829C83.2582 699.685 84.2568 694.41 84.2568 689.889C84.2568 685.243 83.2582 679.968 79.2638 675.824C75.3942 671.931 69.6523 669.294 59.7911 669.294L24.4657 669.294C8.61291 669.294 0.12482 676.075 0.12482 689.889C0.124821 703.578 8.73774 710.485 24.4657 710.485L59.7911 710.485ZM24.4657 697.927C16.352 697.927 12.4825 695.415 12.4825 689.889C12.4825 684.489 16.1024 681.852 24.4657 681.852L59.7911 681.852C68.2792 681.852 71.8991 684.615 71.8991 689.889C71.8991 695.289 68.0295 697.927 59.7911 697.927L24.4657 697.927Z" fill="black" fill-opacity="0.15"/>
<path d="M42.066 635.104C42.066 642.513 54.5484 642.137 54.5484 635.104L54.5484 630.709L59.9159 630.709C68.0295 630.709 71.8991 633.346 71.8991 638.746C71.8991 644.272 68.0295 646.909 59.9159 646.909C56.6705 646.909 44.188 646.909 24.3408 646.909C18.5989 646.909 15.6031 645.779 14.1052 644.02C12.7321 642.639 12.4825 640.504 12.4825 638.746C12.4825 636.988 12.7321 634.978 14.1052 633.471C15.4783 631.964 18.4741 630.709 24.3408 630.709L26.0884 630.709C28.5849 630.709 30.5821 628.699 30.5821 626.188L30.5821 622.546C30.5821 620.16 28.5849 618.15 26.0884 618.15L24.3408 618.15C8.48808 618.15 0.124817 624.932 0.124818 638.746C0.124819 652.56 8.48808 659.467 24.3408 659.467L59.9159 659.467C75.6438 659.467 84.2568 652.56 84.2568 638.746C84.2568 624.932 75.7687 618.15 59.9159 618.15L46.5597 618.15C44.0632 618.15 42.066 620.16 42.066 622.546L42.066 635.104Z" fill="black" fill-opacity="0.15"/>
<path d="M84.2568 585.33C84.2568 583.447 82.634 581.437 80.6368 580.935L52.9257 576.791L79.7631 576.791C82.2596 576.791 84.2568 574.781 84.2568 572.27L84.2568 568.753C84.2568 566.242 82.2596 564.232 79.7631 564.232L4.61851 564.232C2.12201 564.232 0.124815 566.242 0.124815 568.753L0.124815 572.521C0.124815 574.405 1.74754 576.54 3.61991 576.916L53.9243 586.712L3.61991 596.633C1.74754 597.009 0.124816 599.019 0.124816 600.902L0.124816 604.67C0.124817 607.182 2.12201 609.191 4.61851 609.191L79.7631 609.191C82.2596 609.191 84.2568 607.182 84.2568 604.67L84.2568 601.154C84.2568 598.768 82.2596 596.633 79.7631 596.633L52.6761 596.633L80.7617 592.363C82.634 591.986 84.2568 589.977 84.2568 588.093L84.2568 585.33Z" fill="black" fill-opacity="0.15"/>
<path d="M0.124814 548.866C0.124814 551.378 2.12201 553.387 4.61851 553.387L79.7631 553.387C82.2596 553.387 84.2568 551.378 84.2568 548.866L84.2568 521.741C84.2568 519.229 82.2596 517.22 79.7631 517.22L76.3928 517.22C73.8963 517.22 71.8991 519.229 71.8991 521.741L71.8991 540.955L48.3072 540.955L48.3072 525.131C48.3072 522.62 46.31 520.61 43.8135 520.61L40.4432 520.61C37.9467 520.61 35.9495 522.62 35.9495 525.131L35.9495 540.955L12.4825 540.955L12.4825 521.741C12.4825 519.229 10.4853 517.22 7.98878 517.22L4.61851 517.22C2.12201 517.22 0.124813 519.229 0.124813 521.741L0.124814 548.866Z" fill="black" fill-opacity="0.15"/>
<path d="M76.3928 474.077C73.8963 474.077 71.8991 476.086 71.8991 478.598L71.8991 497.31L4.61851 497.31C2.12201 497.31 0.124812 499.319 0.124812 501.705L0.124812 505.347C0.124812 507.859 2.12201 509.868 4.61851 509.868L79.7631 509.868C82.2596 509.868 84.2568 507.859 84.2568 505.347L84.2568 478.598C84.2568 476.086 82.2596 474.077 79.7631 474.077L76.3928 474.077Z" fill="black" fill-opacity="0.15"/>
<path d="M42.066 416.194C42.066 423.603 54.5484 423.226 54.5484 416.194L54.5484 411.798L59.9159 411.798C68.0295 411.798 71.8991 414.435 71.8991 419.835C71.8991 425.361 68.0295 427.998 59.9159 427.998C56.6705 427.998 44.188 427.998 24.3408 427.998C18.5989 427.998 15.6031 426.868 14.1052 425.11C12.7321 423.728 12.4825 421.594 12.4825 419.835C12.4825 418.077 12.7321 416.068 14.1052 414.561C15.4783 413.054 18.4741 411.798 24.3408 411.798L26.0884 411.798C28.5849 411.798 30.5821 409.789 30.5821 407.277L30.5821 403.635C30.5821 401.249 28.5849 399.24 26.0884 399.24L24.3408 399.24C8.48807 399.24 0.124808 406.021 0.124808 419.835C0.124809 433.649 8.48807 440.556 24.3408 440.556L59.9159 440.556C75.6438 440.556 84.2568 433.649 84.2568 419.835C84.2568 406.021 75.7687 399.24 59.9159 399.24L46.5596 399.24C44.0631 399.24 42.066 401.249 42.066 403.635L42.066 416.194Z" fill="black" fill-opacity="0.15"/>
<path d="M80.7617 355.871C82.634 355.368 84.2567 353.359 84.2567 351.475L84.2567 347.834C84.2567 344.82 81.6354 342.81 78.7645 343.438L3.6199 360.769C1.74753 361.145 0.124806 363.28 0.124806 365.164L0.124806 367.927C0.124806 369.81 1.74753 371.82 3.6199 372.322L52.4264 383.75L78.8893 389.778C81.7603 390.406 84.2568 388.397 84.2568 385.383L84.2568 381.741C84.2568 379.857 82.634 377.848 80.7617 377.345L61.289 372.95L61.289 360.141L80.7617 355.871ZM28.9593 366.545C39.5695 364.159 42.9397 364.41 48.9313 363.029L48.9313 370.062L28.9593 366.545Z" fill="black" fill-opacity="0.15"/>
<path d="M84.2567 310.864C84.2567 308.981 82.634 306.971 80.6368 306.469L52.9257 302.325L79.763 302.325C82.2595 302.325 84.2567 300.315 84.2567 297.804L84.2567 294.287C84.2567 291.776 82.2595 289.766 79.763 289.766L4.6185 289.766C2.122 289.766 0.124803 291.776 0.124803 294.287L0.124803 298.055C0.124803 299.939 1.74753 302.074 3.6199 302.45L53.9243 312.246L3.6199 322.167C1.74753 322.543 0.124804 324.553 0.124804 326.436L0.124804 330.204C0.124805 332.716 2.122 334.725 4.6185 334.725L79.7631 334.725C82.2595 334.725 84.2567 332.716 84.2567 330.204L84.2567 326.688C84.2567 324.302 82.2595 322.167 79.7631 322.167L52.6761 322.167L80.7617 317.897C82.634 317.52 84.2567 315.511 84.2567 313.627L84.2567 310.864Z" fill="black" fill-opacity="0.15"/>
<path d="M0.124802 274.4C0.124802 276.912 2.122 278.921 4.6185 278.921L79.763 278.921C82.2595 278.921 84.2567 276.912 84.2567 274.4L84.2567 247.274C84.2567 244.763 82.2595 242.754 79.763 242.754L76.3928 242.754C73.8963 242.754 71.8991 244.763 71.8991 247.274L71.8991 266.489L48.3072 266.489L48.3072 250.665C48.3072 248.154 46.31 246.144 43.8135 246.144L40.4432 246.144C37.9467 246.144 35.9495 248.154 35.9495 250.665L35.9495 266.489L12.4825 266.489L12.4825 247.274C12.4825 244.763 10.4853 242.754 7.98877 242.754L4.6185 242.754C2.12199 242.754 0.124801 244.763 0.124801 247.274L0.124802 274.4Z" fill="black" fill-opacity="0.15"/>
<path d="M59.7911 238.57C76.1431 238.57 84.1319 231.663 84.1319 217.849C84.1319 204.537 76.6424 197.128 62.662 197.128C50.554 197.128 44.188 205.542 37.8219 213.83L37.8219 213.705C33.0786 219.858 28.2104 226.012 21.8443 226.012C15.3534 226.012 12.4825 223.123 12.4825 217.849C12.4825 212.323 16.2272 209.686 24.4656 209.686L26.2132 209.686C28.7097 209.686 30.7069 207.677 30.7069 205.165L30.7069 201.649C30.7069 199.137 28.7097 197.128 26.2132 197.128L24.4656 197.128C8.61289 197.128 -2.43028e-05 204.286 -2.371e-05 217.849C-2.31281e-05 231.161 8.11359 238.57 22.2188 238.57C34.5765 238.57 41.317 229.905 47.8079 221.616L47.6831 221.616C52.4264 215.463 57.0449 209.686 62.9117 209.686C69.5274 209.686 71.7743 212.574 71.7743 217.849C71.7743 219.607 71.5246 221.742 70.1515 223.123C68.6536 224.882 65.7827 226.012 59.7911 226.012L58.1684 226.012C55.6719 226.012 53.6747 228.147 53.6747 230.533L53.6747 234.049C53.6747 236.561 55.6719 238.57 58.1684 238.57L59.7911 238.57Z" fill="black" fill-opacity="0.15"/>
<path d="M59.7911 162.166C76.1431 162.166 84.1319 155.259 84.1319 141.445C84.1319 128.133 76.6424 120.724 62.662 120.724C50.554 120.724 44.188 129.138 37.8219 137.426L37.8219 137.301C33.0786 143.454 28.2104 149.608 21.8443 149.608C15.3534 149.608 12.4825 146.719 12.4825 141.445C12.4825 135.919 16.2272 133.282 24.4656 133.282L26.2132 133.282C28.7097 133.282 30.7069 131.273 30.7069 128.761L30.7069 125.245C30.7069 122.733 28.7097 120.724 26.2132 120.724L24.4656 120.724C8.61289 120.724 -2.76426e-05 127.882 -2.70497e-05 141.445C-2.64678e-05 154.757 8.11359 162.166 22.2188 162.166C34.5764 162.166 41.317 153.501 47.8079 145.212L47.6831 145.212C52.4264 139.059 57.0449 133.282 62.9117 133.282C69.5274 133.282 71.7742 136.17 71.7742 141.445C71.7742 143.203 71.5246 145.338 70.1515 146.719C68.6536 148.478 65.7827 149.608 59.7911 149.608L58.1684 149.608C55.6719 149.608 53.6747 151.743 53.6747 154.129L53.6747 157.645C53.6747 160.157 55.6719 162.166 58.1684 162.166L59.7911 162.166Z" fill="black" fill-opacity="0.15"/>
<path d="M84.2567 94.5477C84.2567 79.4778 75.7686 72.4452 59.5414 72.4452L24.8401 72.4453C8.61288 72.4453 0.124793 79.4779 0.124794 94.5477L0.124795 107.357C0.124795 109.869 2.12199 111.878 4.61849 111.878L79.763 111.878C82.2595 111.878 84.2567 109.869 84.2567 107.357L84.2567 94.5477ZM12.4824 94.5477C12.4824 87.8919 16.4768 85.1291 24.8401 85.1291L59.5414 85.1291C67.9047 85.1291 71.8991 87.8919 71.8991 94.5477L71.8991 99.4454L12.4825 99.4454L12.4824 94.5477Z" fill="black" fill-opacity="0.15"/>
<path d="M58.7925 21.655C52.3016 21.655 47.1838 23.4132 43.3142 27.0551C42.9397 26.6784 42.6901 26.4272 42.3156 26.0505C38.446 22.1574 32.2048 20.776 24.4656 20.776C7.73911 20.776 -3.20883e-05 26.1761 -3.14131e-05 41.6227L-3.07214e-05 57.446C-3.06116e-05 59.9577 1.99716 61.967 4.49366 61.967L79.6382 61.967C82.1347 61.967 84.1319 59.9577 84.1319 57.446L84.1319 53.9297C84.1319 51.5436 82.1347 49.5344 79.6382 49.5344L49.0561 49.5344L49.0561 43.8831C49.0561 37.7296 52.5512 34.2133 58.7925 34.2133L79.6382 34.2133C82.1347 34.2133 84.1319 32.204 84.1319 29.6923L84.1319 26.176C84.1319 23.6644 82.1347 21.655 79.6382 21.655L58.7925 21.655ZM12.4824 49.5344L12.4824 41.6227C12.4824 35.0924 15.9775 33.2086 24.4656 33.2086C32.9537 33.2086 36.4488 36.8505 36.4488 43.8831L36.4488 49.5344L12.4824 49.5344Z" fill="black" fill-opacity="0.15"/>
<path d="M75.0197 -3.27922e-06C72.5232 -3.17009e-06 70.526 2.13487 70.526 4.52093L70.526 8.16284C70.526 10.5489 72.5232 12.6838 75.0197 12.6838L79.763 12.6838C82.2595 12.6838 84.2567 10.5489 84.2567 8.16284L84.2567 4.52093C84.2567 2.13487 82.2595 -3.59568e-06 79.763 -3.48655e-06L75.0197 -3.27922e-06Z" fill="black" fill-opacity="0.15"/>
<path d="M145 752.159C145 745.129 141.099 742.004 133.235 742.004C129.516 742.004 126.407 743.026 124.456 744.588C124.456 744.588 121.347 742.004 115.678 742.004C107.814 742.004 103.912 745.129 103.912 752.159L103.912 758.107C103.912 759.309 104.888 760.27 106.107 760.27L142.805 760.27C144.025 760.27 145 759.309 145 758.107L145 752.159ZM109.947 752.159C109.947 749.215 111.593 748.013 115.678 748.013C119.762 748.013 121.408 749.215 121.408 752.159L121.408 754.262L109.947 754.262L109.947 752.159ZM127.443 752.159C127.443 749.215 129.089 748.013 133.235 748.013C137.319 748.013 138.965 749.215 138.965 752.159L138.965 754.262L127.443 754.262L127.443 752.159Z" fill="black" fill-opacity="0.15"/>
<path d="M103.912 735.35C103.912 736.552 104.888 737.513 106.107 737.513L142.805 737.513C144.025 737.513 145 736.552 145 735.35L145 722.372C145 721.17 144.025 720.209 142.805 720.209L141.159 720.209C139.94 720.209 138.965 721.17 138.965 722.372L138.965 731.565L127.443 731.565L127.443 723.994C127.443 722.792 126.468 721.831 125.249 721.831L123.603 721.831C122.384 721.831 121.408 722.792 121.408 723.994L121.408 731.565L109.947 731.565L109.947 722.372C109.947 721.17 108.972 720.209 107.753 720.209L106.107 720.209C104.888 720.209 103.912 721.17 103.912 722.372L103.912 735.35Z" fill="black" fill-opacity="0.15"/>
<path d="M133.052 716.391C137.868 716.391 140.672 715.069 142.562 713.206C144.512 711.224 145 708.76 145 706.477C145 704.314 144.512 701.79 142.562 699.807C140.672 697.945 137.868 696.683 133.052 696.683L132.198 696.683C130.979 696.683 130.004 697.644 130.004 698.786L130.004 700.528C130.004 701.73 130.979 702.691 132.198 702.691L133.052 702.691C135.246 702.691 136.892 702.992 137.868 703.713C138.477 704.254 138.965 705.335 138.965 706.477C138.965 709.061 137.136 710.322 133.052 710.322L115.8 710.322C111.715 710.322 109.947 709 109.947 706.477C109.947 704.013 111.715 702.691 115.8 702.691L116.653 702.691C117.872 702.691 118.848 701.73 118.848 700.528L118.848 698.786C118.848 697.644 117.872 696.683 116.653 696.683L115.8 696.683C111.167 696.683 108.119 697.945 106.29 699.867C104.461 701.85 103.912 704.254 103.912 706.477C103.912 708.76 104.461 711.164 106.29 713.146C108.119 715.069 111.167 716.391 115.8 716.391L133.052 716.391Z" fill="black" fill-opacity="0.15"/>
<path d="M143.293 676.281C144.208 676.04 145 675.079 145 674.178L145 672.435C145 670.993 143.72 670.032 142.318 670.332L105.619 678.624C104.705 678.804 103.912 679.826 103.912 680.727L103.912 682.049C103.912 682.95 104.705 683.911 105.619 684.152L129.455 689.62L142.379 692.504C143.781 692.804 145 691.843 145 690.401L145 688.658C145 687.757 144.208 686.796 143.293 686.555L133.783 684.452L133.783 678.324L143.293 676.281ZM117.994 681.388C123.176 680.246 124.822 680.366 127.748 679.705L127.748 683.07L117.994 681.388Z" fill="black" fill-opacity="0.15"/>
<path d="M133.783 666.464C140.245 666.464 144.939 663.82 144.939 656.61C144.939 649.64 140.611 646.756 133.783 646.756L106.046 646.756C104.827 646.756 103.851 647.717 103.851 648.919L103.851 650.601C103.851 651.743 104.827 652.704 106.046 652.704L133.783 652.704C136.709 652.704 138.904 653.545 138.904 656.61C138.904 659.554 137.014 660.515 133.783 660.515L106.046 660.515C104.827 660.515 103.851 661.477 103.851 662.678L103.851 664.361C103.851 665.502 104.827 666.464 106.046 666.464L133.783 666.464Z" fill="black" fill-opacity="0.15"/>
<path d="M133.052 642.866C141.038 642.866 144.939 639.561 144.939 632.951C144.939 626.582 141.281 623.037 134.454 623.037C128.541 623.037 125.432 627.063 122.323 631.029L122.323 630.969C120.006 633.913 117.629 636.857 114.52 636.857C111.35 636.857 109.947 635.475 109.947 632.951C109.947 630.308 111.776 629.046 115.8 629.046L116.653 629.046C117.872 629.046 118.848 628.084 118.848 626.883L118.848 625.2C118.848 623.999 117.872 623.037 116.653 623.037L115.8 623.037C108.058 623.037 103.851 626.462 103.851 632.951C103.851 639.32 107.814 642.866 114.702 642.866C120.738 642.866 124.029 638.72 127.199 634.754L127.138 634.754C129.455 631.81 131.711 629.046 134.576 629.046C137.807 629.046 138.904 630.428 138.904 632.951C138.904 633.793 138.782 634.814 138.111 635.475C137.38 636.316 135.978 636.857 133.052 636.857L132.259 636.857C131.04 636.857 130.065 637.878 130.065 639.02L130.065 640.702C130.065 641.904 131.04 642.866 132.259 642.866L133.052 642.866Z" fill="black" fill-opacity="0.15"/>
<path d="M103.912 616.822C103.912 618.024 104.888 618.985 106.107 618.985L142.805 618.985C144.025 618.985 145 618.024 145 616.822L145 603.844C145 602.642 144.025 601.681 142.805 601.681L141.159 601.681C139.94 601.681 138.965 602.642 138.965 603.844L138.965 613.037L127.443 613.037L127.443 605.466C127.443 604.264 126.468 603.303 125.249 603.303L123.603 603.303C122.384 603.303 121.408 604.264 121.408 605.466L121.408 613.037L109.947 613.037L109.947 603.844C109.947 602.642 108.972 601.681 107.753 601.681L106.107 601.681C104.888 601.681 103.912 602.642 103.912 603.844L103.912 616.822Z" fill="black" fill-opacity="0.15"/>
<path d="M145 576.655C145 569.625 141.099 566.5 133.235 566.5C129.516 566.5 126.407 567.522 124.456 569.084C124.456 569.084 121.347 566.5 115.678 566.5C107.814 566.5 103.912 569.625 103.912 576.655L103.912 582.603C103.912 583.805 104.888 584.767 106.107 584.767L142.805 584.767C144.025 584.767 145 583.805 145 582.603L145 576.655ZM109.947 576.655C109.947 573.711 111.593 572.509 115.678 572.509C119.762 572.509 121.408 573.711 121.408 576.655L121.408 578.758L109.947 578.758L109.947 576.655ZM127.443 576.655C127.443 573.711 129.089 572.509 133.235 572.509C137.319 572.509 138.965 573.711 138.965 576.655L138.965 578.758L127.443 578.758L127.443 576.655Z" fill="black" fill-opacity="0.15"/>
<path d="M132.564 542.602C129.394 542.602 126.895 543.443 125.005 545.186C124.822 545.005 124.7 544.885 124.517 544.705C122.627 542.842 119.579 542.181 115.8 542.181C107.631 542.181 103.851 544.765 103.851 552.156L103.851 559.726C103.851 560.928 104.827 561.889 106.046 561.889L142.744 561.889C143.964 561.889 144.939 560.928 144.939 559.726L144.939 558.044C144.939 556.902 143.964 555.941 142.744 555.941L127.809 555.941L127.809 553.237C127.809 550.293 129.516 548.61 132.564 548.61L142.744 548.61C143.964 548.61 144.939 547.649 144.939 546.447L144.939 544.765C144.939 543.563 143.964 542.602 142.744 542.602L132.564 542.602ZM109.947 555.941L109.947 552.156C109.947 549.031 111.654 548.13 115.8 548.13C119.945 548.13 121.652 549.872 121.652 553.237L121.652 555.941L109.947 555.941Z" fill="black" fill-opacity="0.15"/>
<path d="M143.293 524.013C144.208 523.773 145 522.811 145 521.91L145 520.167C145 518.725 143.72 517.764 142.318 518.064L105.619 526.356C104.705 526.537 103.912 527.558 103.912 528.459L103.912 529.781C103.912 530.682 104.705 531.644 105.619 531.884L129.455 537.352L142.379 540.236C143.781 540.536 145 539.575 145 538.133L145 536.391C145 535.489 144.208 534.528 143.293 534.288L133.783 532.185L133.783 526.056L143.293 524.013ZM117.994 529.12C123.176 527.979 124.822 528.099 127.748 527.438L127.748 530.803L117.994 529.12Z" fill="black" fill-opacity="0.15"/>
<path d="M106.107 494.007C104.888 494.007 103.912 494.969 103.912 496.17L103.912 512.153C103.912 513.355 104.888 514.316 106.107 514.316L107.753 514.316C108.972 514.316 109.947 513.355 109.947 512.153L109.947 501.338L140.672 514.016L142.805 514.016C144.025 514.016 145 513.054 145 511.913L145 496.411C145 495.269 144.025 494.248 142.805 494.248L141.159 494.248C139.94 494.248 138.965 495.269 138.965 496.411L138.965 506.745L108.18 494.007L106.107 494.007Z" fill="black" fill-opacity="0.15"/>
<path d="M106.107 483.304C104.888 483.304 103.912 484.325 103.912 485.467L103.912 487.149C103.912 488.351 104.888 489.313 106.107 489.313L142.805 489.313C144.025 489.313 145 488.351 145 487.149L145 485.467C145 484.325 144.025 483.304 142.805 483.304L106.107 483.304Z" fill="black" fill-opacity="0.15"/>
<path d="M141.159 462.511C139.94 462.511 138.965 463.472 138.965 464.674L138.965 473.626L106.107 473.626C104.888 473.626 103.912 474.588 103.912 475.729L103.912 477.472C103.912 478.674 104.888 479.635 106.107 479.635L142.805 479.635C144.025 479.635 145 478.674 145 477.472L145 464.674C145 463.472 144.025 462.511 142.805 462.511L141.159 462.511Z" fill="black" fill-opacity="0.15"/>
<path d="M106.107 453.32C104.888 453.32 103.912 454.341 103.912 455.483L103.912 457.165C103.912 458.367 104.888 459.328 106.107 459.328L142.805 459.328C144.025 459.328 145 458.367 145 457.165L145 455.483C145 454.341 144.025 453.32 142.805 453.32L106.107 453.32Z" fill="black" fill-opacity="0.15"/>
<path d="M143.293 432.887C144.208 432.647 145 431.685 145 430.784L145 429.042C145 427.6 143.72 426.638 142.318 426.939L105.619 435.23C104.705 435.411 103.912 436.432 103.912 437.333L103.912 438.655C103.912 439.557 104.705 440.518 105.619 440.758L129.455 446.226L142.379 449.11C143.781 449.411 145 448.449 145 447.007L145 445.265C145 444.363 144.208 443.402 143.293 443.162L133.783 441.059L133.783 434.93L143.293 432.887ZM117.994 437.994C123.176 436.853 124.822 436.973 127.748 436.312L127.748 439.677L117.994 437.994Z" fill="black" fill-opacity="0.15"/>
<path d="M145 407.271C145 406.07 144.025 405.108 142.805 405.108L106.107 405.108C104.888 405.108 103.912 406.07 103.912 407.271L103.912 408.954C103.912 410.155 104.888 411.117 106.107 411.117L126.224 411.117L105.253 419.469C104.583 419.709 103.912 420.67 103.912 421.452L103.912 422.894C103.912 424.035 104.888 425.057 106.107 425.057L142.805 425.057C144.025 425.057 145 424.035 145 422.894L145 421.151C145 420.009 144.025 418.988 142.805 418.988L122.688 418.988L143.659 410.636C144.329 410.396 145 409.374 145 408.653L145 407.271Z" fill="black" fill-opacity="0.15"/>
<path d="M124.395 376.08C124.395 379.625 130.491 379.445 130.491 376.08L130.491 373.977L133.113 373.977C137.075 373.977 138.965 375.239 138.965 377.822C138.965 380.466 137.075 381.728 133.113 381.728C131.528 381.728 125.432 381.728 115.739 381.728C112.935 381.728 111.471 381.187 110.74 380.346C110.069 379.685 109.947 378.664 109.947 377.822C109.947 376.981 110.069 376.02 110.74 375.299C111.411 374.578 112.874 373.977 115.739 373.977L116.592 373.977C117.811 373.977 118.787 373.016 118.787 371.814L118.787 370.071C118.787 368.93 117.811 367.968 116.592 367.968L115.739 367.968C107.997 367.968 103.912 371.213 103.912 377.822C103.912 384.432 107.997 387.737 115.739 387.736L133.113 387.736C140.794 387.736 145 384.432 145 377.822C145 371.213 140.855 367.968 133.113 367.968L126.59 367.968C125.371 367.968 124.395 368.93 124.395 370.071L124.395 376.08Z" fill="black" fill-opacity="0.15"/>
<path d="M143.293 347.218C144.208 346.978 145 346.016 145 345.115L145 343.373C145 341.931 143.72 340.969 142.318 341.27L105.619 349.561C104.705 349.742 103.912 350.763 103.912 351.664L103.912 352.986C103.912 353.888 104.705 354.849 105.619 355.089L129.455 360.557L142.379 363.441C143.781 363.742 145 362.78 145 361.338L145 359.596C145 358.694 144.208 357.733 143.293 357.493L133.783 355.39L133.783 349.261L143.293 347.218ZM117.994 352.325C123.176 351.184 124.822 351.304 127.748 350.643L127.748 354.008L117.994 352.325Z" fill="black" fill-opacity="0.15"/>
<path d="M145 325.685C145 324.783 144.208 323.822 143.232 323.582L129.699 321.599L142.805 321.599C144.025 321.599 145 320.637 145 319.436L145 317.753C145 316.552 144.025 315.59 142.805 315.59L106.107 315.59C104.888 315.59 103.912 316.552 103.912 317.753L103.912 319.556C103.912 320.457 104.705 321.479 105.619 321.659L130.186 326.345L105.619 331.092C104.705 331.272 103.912 332.234 103.912 333.135L103.912 334.938C103.912 336.139 104.888 337.101 106.107 337.101L142.805 337.101C144.025 337.101 145 336.139 145 334.938L145 333.255C145 332.114 144.025 331.092 142.805 331.092L129.577 331.092L143.293 329.049C144.208 328.869 145 327.908 145 327.006L145 325.685Z" fill="black" fill-opacity="0.15"/>
<path d="M103.912 308.238C103.912 309.44 104.888 310.401 106.107 310.401L142.805 310.401C144.025 310.401 145 309.44 145 308.238L145 295.26C145 294.058 144.025 293.097 142.805 293.097L141.159 293.097C139.94 293.097 138.965 294.058 138.965 295.26L138.965 304.453L127.443 304.453L127.443 296.882C127.443 295.68 126.468 294.719 125.249 294.719L123.603 294.719C122.383 294.719 121.408 295.68 121.408 296.882L121.408 304.453L109.947 304.453L109.947 295.26C109.947 294.058 108.972 293.097 107.753 293.097L106.107 293.097C104.888 293.097 103.912 294.058 103.912 295.26L103.912 308.238Z" fill="black" fill-opacity="0.15"/>
<path d="M133.052 291.095C141.038 291.095 144.939 287.79 144.939 281.181C144.939 274.812 141.281 271.267 134.454 271.267C128.541 271.267 125.432 275.292 122.323 279.258L122.323 279.198C120.006 282.142 117.629 285.086 114.52 285.086C111.35 285.086 109.947 283.704 109.947 281.181C109.947 278.537 111.776 277.275 115.8 277.275L116.653 277.275C117.872 277.275 118.848 276.314 118.848 275.112L118.848 273.43C118.848 272.228 117.872 271.267 116.653 271.267L115.8 271.267C108.058 271.267 103.851 274.692 103.851 281.181C103.851 287.55 107.814 291.095 114.702 291.095C120.738 291.095 124.029 286.949 127.199 282.983L127.138 282.983C129.455 280.039 131.711 277.275 134.576 277.275C137.807 277.275 138.904 278.657 138.904 281.181C138.904 282.022 138.782 283.043 138.111 283.704C137.38 284.546 135.978 285.086 133.052 285.086L132.259 285.086C131.04 285.086 130.065 286.108 130.065 287.249L130.065 288.932C130.065 290.134 131.04 291.095 132.259 291.095L133.052 291.095Z" fill="black" fill-opacity="0.15"/>
<path d="M143.293 238.196C144.208 237.955 145 236.994 145 236.093L145 234.35C145 232.908 143.72 231.947 142.318 232.247L105.619 240.539C104.705 240.719 103.912 241.741 103.912 242.642L103.912 243.964C103.912 244.865 104.705 245.827 105.619 246.067L129.455 251.535L142.379 254.419C143.781 254.719 145 253.758 145 252.316L145 250.573C145 249.672 144.208 248.711 143.293 248.47L133.783 246.367L133.783 240.239L143.293 238.196ZM117.994 243.303C123.176 242.161 124.822 242.281 127.748 241.621L127.748 244.985L117.994 243.303Z" fill="black" fill-opacity="0.15"/>
<path d="M132.564 210.488C129.394 210.488 126.895 211.329 125.005 213.072C124.822 212.892 124.7 212.772 124.517 212.591C122.627 210.729 119.579 210.068 115.8 210.068C107.631 210.068 103.851 212.651 103.851 220.042L103.851 227.613C103.851 228.814 104.827 229.776 106.046 229.776L142.744 229.776C143.964 229.776 144.939 228.814 144.939 227.613L144.939 225.93C144.939 224.789 143.964 223.827 142.744 223.827L127.809 223.827L127.809 221.123C127.809 218.179 129.516 216.497 132.564 216.497L142.744 216.497C143.964 216.497 144.939 215.535 144.939 214.334L144.939 212.651C144.939 211.45 143.964 210.488 142.744 210.488L132.564 210.488ZM109.947 223.827L109.947 220.042C109.947 216.917 111.654 216.016 115.8 216.016C119.945 216.016 121.652 217.759 121.652 221.123L121.652 223.827L109.947 223.827Z" fill="black" fill-opacity="0.15"/>
<path d="M103.912 203.792C103.912 204.994 104.888 205.956 106.107 205.956L142.805 205.956C144.025 205.956 145 204.994 145 203.792L145 190.814C145 189.612 144.025 188.651 142.805 188.651L141.159 188.651C139.94 188.651 138.965 189.612 138.965 190.814L138.965 200.007L127.443 200.007L127.443 192.436C127.443 191.235 126.468 190.273 125.249 190.273L123.603 190.273C122.383 190.273 121.408 191.235 121.408 192.436L121.408 200.007L109.947 200.007L109.947 190.814C109.947 189.612 108.972 188.651 107.753 188.651L106.107 188.651C104.888 188.651 103.912 189.612 103.912 190.814L103.912 203.792Z" fill="black" fill-opacity="0.15"/>
<path d="M107.753 172.338C108.972 172.338 109.947 171.376 109.947 170.175L109.947 165.308L142.744 165.308C143.964 165.308 144.939 164.346 144.939 163.145L144.939 161.522C144.939 160.321 143.964 159.359 142.744 159.359L109.947 159.359L109.947 154.432C109.947 153.23 108.972 152.269 107.753 152.269L106.046 152.269C104.827 152.269 103.851 153.23 103.851 154.432L103.851 170.175C103.851 171.376 104.827 172.338 106.046 172.338L107.753 172.338Z" fill="black" fill-opacity="0.15"/>
<path d="M121.469 144.319L106.107 144.319C104.888 144.319 103.912 145.281 103.912 146.483L103.912 148.165C103.912 149.367 104.888 150.328 106.107 150.328L142.805 150.328C144.025 150.328 145 149.367 145 148.165L145 146.483C145 145.281 144.025 144.319 142.805 144.319L127.504 144.319L127.504 137.65L142.805 137.65C144.025 137.65 145 136.689 145 135.487L145 133.805C145 132.603 144.025 131.641 142.805 131.641L106.107 131.641C104.888 131.641 103.912 132.603 103.912 133.805L103.912 135.487C103.912 136.689 104.888 137.65 106.107 137.65L121.469 137.65L121.469 144.319Z" fill="black" fill-opacity="0.15"/>
<path d="M103.912 124.578C103.912 125.78 104.888 126.741 106.107 126.741L142.805 126.741C144.025 126.741 145 125.78 145 124.578L145 111.6C145 110.398 144.025 109.437 142.805 109.437L141.159 109.437C139.94 109.437 138.965 110.398 138.965 111.6L138.965 120.793L127.443 120.793L127.443 113.222C127.443 112.02 126.468 111.059 125.249 111.059L123.603 111.059C122.383 111.059 121.408 112.02 121.408 113.222L121.408 120.793L109.947 120.793L109.947 111.6C109.947 110.398 108.972 109.437 107.753 109.437L106.107 109.437C104.888 109.437 103.912 110.398 103.912 111.6L103.912 124.578Z" fill="black" fill-opacity="0.15"/>
<path d="M103.912 90.9602C103.912 92.1619 104.888 93.1233 106.107 93.1233L142.805 93.1233C144.025 93.1233 145 92.1619 145 90.9602L145 89.2778C145 88.1361 144.025 87.1147 142.805 87.1147L127.443 87.1147L127.443 80.3851C127.443 79.1834 126.468 78.2221 125.249 78.2221L123.603 78.2221C122.383 78.2221 121.408 79.1834 121.408 80.3851L121.408 87.1147L109.947 87.1147L109.947 77.9817C109.947 76.78 108.972 75.8186 107.753 75.8186L106.107 75.8186C104.888 75.8186 103.912 76.78 103.912 77.9817L103.912 90.9602Z" fill="black" fill-opacity="0.15"/>
<path d="M141.159 54.6445C139.94 54.6445 138.965 55.6059 138.965 56.8076L138.965 65.7604L106.107 65.7604C104.888 65.7604 103.912 66.7218 103.912 67.8634L103.912 69.6058C103.912 70.8076 104.888 71.769 106.107 71.769L142.805 71.769C144.025 71.769 145 70.8076 145 69.6058L145 56.8076C145 55.6059 144.025 54.6445 142.805 54.6445L141.159 54.6445Z" fill="black" fill-opacity="0.15"/>
<path d="M133.052 51.222C137.868 51.222 140.672 49.9001 142.562 48.0375C144.512 46.0547 145 43.531 145 41.368C145 39.1448 144.512 36.6212 142.562 34.6384C140.672 32.7758 137.868 31.514 133.052 31.514L115.8 31.514C108.058 31.514 103.912 34.7586 103.912 41.368C103.912 47.9173 108.119 51.222 115.8 51.222L133.052 51.222ZM115.8 45.2135C111.837 45.2135 109.947 44.0117 109.947 41.368C109.947 38.7843 111.715 37.5225 115.8 37.5225L133.052 37.5225C137.197 37.5225 138.965 38.8444 138.965 41.368C138.965 43.9516 137.075 45.2135 133.052 45.2135L115.8 45.2135Z" fill="black" fill-opacity="0.15"/>
<path d="M105.68 11.8575C104.705 12.0378 103.912 12.9991 103.912 13.9605L103.912 15.2824C103.912 16.2438 104.705 17.2051 105.68 17.3854L124.212 20.5098L105.741 23.2738C104.705 23.454 103.912 24.4154 103.912 25.4368L103.912 27.1794C103.912 28.5613 105.071 29.4626 106.412 29.2823L143.171 23.394C144.147 23.2137 145 22.3124 145 21.291L145 19.9691C145 19.0077 144.208 18.0464 143.232 17.8661L123.786 14.6215L143.232 11.4369C144.208 11.2567 145 10.2953 145 9.33393L145 7.95194C145 6.93049 144.147 5.96912 143.171 5.78887L106.412 0.0206847C105.071 -0.159571 103.912 0.861877 103.912 2.18376L103.912 3.92622C103.912 4.94767 104.705 5.96912 105.741 6.08929L124.09 8.79318L105.68 11.8575Z" fill="black" fill-opacity="0.15"/>
</svg>
